<svg xmlns="http://www.w3.org/2000/svg" xmlns:xlink="http://www.w3.org/1999/xlink" width="960" height="1680"><g transform="translate(0 0)"><path d="M84 1580c8.84 0 16 17.9 16 40s-7.16 40-16 40H36c-8.84 0-16-17.9-16-40s7.16-40 16-40z" stroke="#000" stroke-width="2" fill="#fff"/><use xlink:href="#a" transform="matrix(1,0,0,1,25,1585) translate(19.525 27.799999999999997)"/><use xlink:href="#b" transform="matrix(1,0,0,1,25,1585) translate(15 49.4)"/><path d="M180 1580h120v80H180z" stroke="#000" stroke-width="2" fill="#a3d977"/><use xlink:href="#c" transform="matrix(1,0,0,1,185,1585) translate(13.074999999999996 38.6)"/><use xlink:href="#d" transform="matrix(1,0,0,1,185,1585) translate(86.92500000000001 38.6)"/><path d="M340 1580h120v80H340z" stroke="#000" stroke-width="2" fill="#a3d977"/><use xlink:href="#e" transform="matrix(1,0,0,1,345,1585) translate(30.049999999999997 27.799999999999997)"/><use xlink:href="#f" transform="matrix(1,0,0,1,345,1585) translate(16.549999999999997 49.4)"/><use xlink:href="#d" transform="matrix(1,0,0,1,345,1585) translate(83.45 49.4)"/><path d="M500 1580h120v80H500z" stroke="#000" stroke-width="2" fill="#ffdf71"/><use xlink:href="#g" transform="matrix(1,0,0,1,505,1585) translate(16.525 38.6)"/><use xlink:href="#d" transform="matrix(1,0,0,1,505,1585) translate(83.475 38.6)"/><path d="M660 1580h120v80H660z" stroke="#000" stroke-width="2" fill="#ccc"/><use xlink:href="#h" transform="matrix(1,0,0,1,665,1585) translate(1.624999999999993 27.799999999999997)"/><use xlink:href="#i" transform="matrix(1,0,0,1,665,1585) translate(87.42500000000001 27.799999999999997)"/><use xlink:href="#j" transform="matrix(1,0,0,1,665,1585) translate(14.549999999999997 49.4)"/><path d="M820 1580h120v80H820z" stroke="#000" stroke-width="2" fill="#ccc"/><use xlink:href="#k" transform="matrix(1,0,0,1,825,1585) translate(2.5749999999999957 27.799999999999997)"/><use xlink:href="#l" transform="matrix(1,0,0,1,825,1585) translate(38.525 27.799999999999997)"/><use xlink:href="#m" transform="matrix(1,0,0,1,825,1585) translate(30.525 49.4)"/><use xlink:href="#n" transform="matrix(1,0,0,1,825,1585) translate(50.525 49.4)"/><path d="M84 1460c8.84 0 16 17.9 16 40s-7.16 40-16 40H36c-8.84 0-16-17.9-16-40s7.16-40 16-40z" stroke="#000" stroke-width="2" fill="#fff"/><use xlink:href="#o" transform="matrix(1,0,0,1,25,1465) translate(7.149999999999999 27.799999999999997)"/><use xlink:href="#p" transform="matrix(1,0,0,1,25,1465) translate(15 49.4)"/><path d="M180 1460h120v80H180z" stroke="#000" stroke-width="2" fill="#a3d977"/><use xlink:href="#c" transform="matrix(1,0,0,1,185,1465) translate(13.074999999999996 38.6)"/><use xlink:href="#q" transform="matrix(1,0,0,1,185,1465) translate(86.92500000000001 38.6)"/><path d="M340 1460h120v80H340z" stroke="#000" stroke-width="2" fill="#ffdf71"/><use xlink:href="#r" transform="matrix(1,0,0,1,345,1465) translate(16.924999999999997 27.799999999999997)"/><use xlink:href="#s" transform="matrix(1,0,0,1,345,1465) translate(56.775 27.799999999999997)"/><use xlink:href="#t" transform="matrix(1,0,0,1,345,1465) translate(27.05 49.4)"/><path d="M500 1460h120v80H500z" stroke="#000" stroke-width="2" fill="#ffdf71"/><use xlink:href="#g" transform="matrix(1,0,0,1,505,1465) translate(16.525 38.6)"/><use xlink:href="#q" transform="matrix(1,0,0,1,505,1465) translate(83.475 38.6)"/><path d="M660 1460h120v80H660z" stroke="#000" stroke-width="2" fill="#b391b5"/><use xlink:href="#u" transform="matrix(1,0,0,1,665,1465) translate(21.574999999999996 17)"/><use xlink:href="#v" transform="matrix(1,0,0,1,665,1465) translate(17.049999999999997 38.6)"/><use xlink:href="#w" transform="matrix(1,0,0,1,665,1465) translate(80.95 38.6)"/><use xlink:href="#x" transform="matrix(1,0,0,1,665,1465) translate(11.074999999999996 60.2)"/><path d="M820 1460h120v80H820z" stroke="#000" stroke-width="2" fill="#ccc"/><use xlink:href="#y" transform="matrix(1,0,0,1,825,1465) translate(-2.375000000000007 27.799999999999997)"/><use xlink:href="#z" transform="matrix(1,0,0,1,825,1465) translate(1.5749999999999957 49.4)"/><use xlink:href="#A" transform="matrix(1,0,0,1,825,1465) translate(27.524999999999995 49.4)"/><path d="M84 1340c8.84 0 16 17.9 16 40s-7.16 40-16 40H36c-8.84 0-16-17.9-16-40s7.16-40 16-40z" stroke="#000" stroke-width="2" fill="#fff"/><use xlink:href="#B" transform="matrix(1,0,0,1,25,1345) translate(-0.9750000000000014 27.799999999999997)"/><use xlink:href="#p" transform="matrix(1,0,0,1,25,1345) translate(15 49.4)"/><path d="M180 1340h120v80H180z" stroke="#000" stroke-width="2" fill="#a3d977"/><use xlink:href="#c" transform="matrix(1,0,0,1,185,1345) translate(13.074999999999996 38.6)"/><use xlink:href="#C" transform="matrix(1,0,0,1,185,1345) translate(86.92500000000001 38.6)"/><path d="M340 1340h600v80H340z" stroke="#000" stroke-width="2" fill="#fff"/><use xlink:href="#D" transform="matrix(1,0,0,1,345,1345) translate(33.849999999999966 39.1)"/><use xlink:href="#E" transform="matrix(1,0,0,1,345,1345) translate(92.74999999999997 39.1)"/><use xlink:href="#F" transform="matrix(1,0,0,1,345,1345) translate(170.59999999999997 39.1)"/><use xlink:href="#G" transform="matrix(1,0,0,1,345,1345) translate(231.49999999999997 39.1)"/><use xlink:href="#H" transform="matrix(1,0,0,1,345,1345) translate(295.4 39.1)"/><use xlink:href="#I" transform="matrix(1,0,0,1,345,1345) translate(314.34999999999997 39.1)"/><use xlink:href="#J" transform="matrix(1,0,0,1,345,1345) translate(396.15 39.1)"/><use xlink:href="#K" transform="matrix(1,0,0,1,345,1345) translate(507.25 39.1)"/><path d="M84 1220c8.84 0 16 17.9 16 40s-7.16 40-16 40H36c-8.84 0-16-17.9-16-40s7.16-40 16-40z" stroke="#000" stroke-width="2" fill="#fff"/><use xlink:href="#a" transform="matrix(1,0,0,1,25,1225) translate(19.525 27.799999999999997)"/><use xlink:href="#p" transform="matrix(1,0,0,1,25,1225) translate(15 49.4)"/><path d="M180 1220h120v80H180z" stroke="#000" stroke-width="2" fill="#99d2f2"/><use xlink:href="#L" transform="matrix(1,0,0,1,185,1225) translate(18.574999999999996 27.799999999999997)"/><use xlink:href="#M" transform="matrix(1,0,0,1,185,1225) translate(33.525 49.4)"/><path d="M340 1220h120v80H340z" stroke="#000" stroke-width="2" fill="#ffc374"/><use xlink:href="#N" transform="matrix(1,0,0,1,345,1225) translate(7.599999999999994 27.799999999999997)"/><use xlink:href="#O" transform="matrix(1,0,0,1,345,1225) translate(72.4 27.799999999999997)"/><use xlink:href="#P" transform="matrix(1,0,0,1,345,1225) translate(25.549999999999997 49.4)"/><path d="M500 1220h120v80H500z" stroke="#000" stroke-width="2" fill="#ffdf71"/><use xlink:href="#Q" transform="matrix(1,0,0,1,505,1225) translate(24.549999999999997 27.799999999999997)"/><use xlink:href="#R" transform="matrix(1,0,0,1,505,1225) translate(16.525 49.4)"/><use xlink:href="#d" transform="matrix(1,0,0,1,505,1225) translate(83.475 49.4)"/><path d="M820 1220h120v80H820z" stroke="#000" stroke-width="2" fill="#b391b5"/><use xlink:href="#S" transform="matrix(1,0,0,1,825,1225) translate(14.624999999999993 27.799999999999997)"/><use xlink:href="#T" transform="matrix(1,0,0,1,825,1225) translate(20.525 49.4)"/><path d="M84 1100c8.84 0 16 17.9 16 40s-7.16 40-16 40H36c-8.84 0-16-17.9-16-40s7.16-40 16-40z" stroke="#000" stroke-width="2" fill="#fff"/><use xlink:href="#o" transform="matrix(1,0,0,1,25,1105) translate(7.149999999999999 27.799999999999997)"/><use xlink:href="#U" transform="matrix(1,0,0,1,25,1105) translate(15 49.4)"/><path d="M180 1100h120v80H180z" stroke="#000" stroke-width="2" fill="#a3d977"/><use xlink:href="#V" transform="matrix(1,0,0,1,185,1105) translate(1.5999999999999943 27.799999999999997)"/><use xlink:href="#T" transform="matrix(1,0,0,1,185,1105) translate(20.525 49.4)"/><path d="M340 1100h120v80H340z" stroke="#000" stroke-width="2" fill="#ffc374"/><use xlink:href="#W" transform="matrix(1,0,0,1,345,1105) translate(3.5749999999999957 38.6)"/><use xlink:href="#d" transform="matrix(1,0,0,1,345,1105) translate(96.42500000000001 38.6)"/><path d="M500 1100h120v80H500z" stroke="#000" stroke-width="2" fill="#ffc374"/><use xlink:href="#X" transform="matrix(1,0,0,1,505,1105) translate(16.574999999999996 27.799999999999997)"/><use xlink:href="#Y" transform="matrix(1,0,0,1,505,1105) translate(25.099999999999998 49.4)"/><path d="M660 1100h120v80H660z" stroke="#000" stroke-width="2" fill="#ffdf71"/><use xlink:href="#Z" transform="matrix(1,0,0,1,665,1105) translate(2.8999999999999986 27.799999999999997)"/><use xlink:href="#aa" transform="matrix(1,0,0,1,665,1105) translate(53.199999999999996 27.799999999999997)"/><use xlink:href="#ab" transform="matrix(1,0,0,1,665,1105) translate(12.024999999999999 49.4)"/><use xlink:href="#ac" transform="matrix(1,0,0,1,665,1105) translate(47.025 49.4)"/><path d="M820 1100h120v80H820z" stroke="#000" stroke-width="2" fill="#b391b5"/><use xlink:href="#ad" transform="matrix(1,0,0,1,825,1105) translate(29.025 17)"/><use xlink:href="#ae" transform="matrix(1,0,0,1,825,1105) translate(20.549999999999997 38.6)"/><use xlink:href="#af" transform="matrix(1,0,0,1,825,1105) translate(19.549999999999997 60.2)"/><path d="M84 980c8.84 0 16 17.9 16 40s-7.16 40-16 40H36c-8.84 0-16-17.9-16-40s7.16-40 16-40z" stroke="#000" stroke-width="2" fill="#fff"/><use xlink:href="#B" transform="matrix(1,0,0,1,25,985) translate(-0.9750000000000014 27.799999999999997)"/><use xlink:href="#U" transform="matrix(1,0,0,1,25,985) translate(15 49.4)"/><path d="M180 980h120v80H180z" stroke="#000" stroke-width="2" fill="#a3d977"/><use xlink:href="#e" transform="matrix(1,0,0,1,185,985) translate(30.049999999999997 27.799999999999997)"/><use xlink:href="#f" transform="matrix(1,0,0,1,185,985) translate(16.549999999999997 49.4)"/><use xlink:href="#q" transform="matrix(1,0,0,1,185,985) translate(83.45 49.4)"/><path d="M340 980h600v80H340z" stroke="#000" stroke-width="2" fill="#fff"/><use xlink:href="#D" transform="matrix(1,0,0,1,345,985) translate(191.14999999999998 38.6)"/><use xlink:href="#ag" transform="matrix(1,0,0,1,345,985) translate(250.04999999999998 38.6)"/><use xlink:href="#ah" transform="matrix(1,0,0,1,345,985) translate(300 38.6)"/><path d="M84 860c8.84 0 16 17.9 16 40s-7.16 40-16 40H36c-8.84 0-16-17.9-16-40s7.16-40 16-40z" stroke="#000" stroke-width="2" fill="#fff"/><use xlink:href="#a" transform="matrix(1,0,0,1,25,865) translate(19.525 27.799999999999997)"/><use xlink:href="#U" transform="matrix(1,0,0,1,25,865) translate(15 49.4)"/><path d="M180 860h120v80H180z" stroke="#000" stroke-width="2" fill="#a3d977"/><use xlink:href="#e" transform="matrix(1,0,0,1,185,865) translate(30.049999999999997 27.799999999999997)"/><use xlink:href="#ai" transform="matrix(1,0,0,1,185,865) translate(1.124999999999993 49.4)"/><path d="M500 860h120v80H500z" stroke="#000" stroke-width="2" fill="#ffc374"/><use xlink:href="#W" transform="matrix(1,0,0,1,505,865) translate(3.5749999999999957 38.6)"/><use xlink:href="#q" transform="matrix(1,0,0,1,505,865) translate(96.42500000000001 38.6)"/><path d="M660 860h120v80H660z" stroke="#000" stroke-width="2" fill="#ffc374"/><use xlink:href="#aj" transform="matrix(1,0,0,1,665,865) translate(24.025 17)"/><use xlink:href="#O" transform="matrix(1,0,0,1,665,865) translate(55.975 17)"/><use xlink:href="#ak" transform="matrix(1,0,0,1,665,865) translate(29.549999999999997 38.6)"/><use xlink:href="#al" transform="matrix(1,0,0,1,665,865) translate(7.074999999999996 60.2)"/><path d="M820 860h120v80H820z" stroke="#000" stroke-width="2" fill="#ffdf71"/><use xlink:href="#am" transform="matrix(1,0,0,1,825,865) translate(18.025 27.799999999999997)"/><use xlink:href="#an" transform="matrix(1,0,0,1,825,865) translate(4.549999999999997 49.4)"/><use xlink:href="#ao" transform="matrix(1,0,0,1,825,865) translate(95.45 49.4)"/><path d="M340 860h120v80H340z" stroke="#000" stroke-width="2" fill="#a3d977"/><use xlink:href="#S" transform="matrix(1,0,0,1,345,865) translate(14.624999999999993 27.799999999999997)"/><use xlink:href="#ap" transform="matrix(1,0,0,1,345,865) translate(21.549999999999997 49.4)"/><path d="M84 740c8.84 0 16 17.9 16 40s-7.16 40-16 40H36c-8.84 0-16-17.9-16-40s7.16-40 16-40z" stroke="#000" stroke-width="2" fill="#fff"/><use xlink:href="#o" transform="matrix(1,0,0,1,25,745) translate(7.149999999999999 27.799999999999997)"/><use xlink:href="#aq" transform="matrix(1,0,0,1,25,745) translate(15 49.4)"/><path d="M180 740h120v80H180z" stroke="#000" stroke-width="2" fill="#a3d977"/><g><use xlink:href="#am" transform="matrix(1,0,0,1,185,745) translate(18.025 27.799999999999997)"/><use xlink:href="#ar" transform="matrix(1,0,0,1,185,745) translate(11.574999999999996 49.4)"/></g><path d="M340 740h120v80H340z" stroke="#000" stroke-width="2" fill="#ffc374"/><g><use xlink:href="#as" transform="matrix(1,0,0,1,345,745) translate(21.549999999999997 27.799999999999997)"/><use xlink:href="#at" transform="matrix(1,0,0,1,345,745) translate(14.049999999999997 49.4)"/></g><path d="M500 740h120v80H500z" stroke="#000" stroke-width="2" fill="#ffc374"/><g><use xlink:href="#au" transform="matrix(1,0,0,1,505,745) translate(30.099999999999998 27.799999999999997)"/><use xlink:href="#av" transform="matrix(1,0,0,1,505,745) translate(11.074999999999996 49.4)"/></g><path d="M660 740h120v80H660z" stroke="#000" stroke-width="2" fill="#ffdf71"/><g><use xlink:href="#V" transform="matrix(1,0,0,1,665,745) translate(1.5999999999999943 27.799999999999997)"/><use xlink:href="#aw" transform="matrix(1,0,0,1,665,745) translate(24.025 49.4)"/></g><path d="M820 740h120v80H820z" stroke="#000" stroke-width="2" fill="#b391b5"/><g><use xlink:href="#ax" transform="matrix(1,0,0,1,825,745) translate(3.0249999999999986 27.799999999999997)"/><use xlink:href="#O" transform="matrix(1,0,0,1,825,745) translate(76.975 27.799999999999997)"/><use xlink:href="#ay" transform="matrix(1,0,0,1,825,745) translate(13.099999999999994 49.4)"/></g><path d="M84 620c8.84 0 16 17.9 16 40s-7.16 40-16 40H36c-8.84 0-16-17.9-16-40s7.16-40 16-40z" stroke="#000" stroke-width="2" fill="#fff"/><g><use xlink:href="#B" transform="matrix(1,0,0,1,25,625) translate(-0.9750000000000014 27.799999999999997)"/><use xlink:href="#aq" transform="matrix(1,0,0,1,25,625) translate(15 49.4)"/></g><path d="M180 620h120v80H180z" stroke="#000" stroke-width="2" fill="#a3d977"/><g><use xlink:href="#az" transform="matrix(1,0,0,1,185,625) translate(13.099999999999994 27.799999999999997)"/><use xlink:href="#ab" transform="matrix(1,0,0,1,185,625) translate(1.5499999999999972 49.4)"/><use xlink:href="#aA" transform="matrix(1,0,0,1,185,625) translate(36.55 49.4)"/></g><path d="M340 620h120v80H340z" stroke="#000" stroke-width="2" fill="#ffc374"/><g><use xlink:href="#aj" transform="matrix(1,0,0,1,345,625) translate(11.875 38.6)"/><use xlink:href="#aB" transform="matrix(1,0,0,1,345,625) translate(43.825 38.6)"/></g><path d="M500 620h120v80H500z" stroke="#000" stroke-width="2" fill="#ffdf71"/><g><use xlink:href="#Q" transform="matrix(1,0,0,1,505,625) translate(24.549999999999997 27.799999999999997)"/><use xlink:href="#R" transform="matrix(1,0,0,1,505,625) translate(16.525 49.4)"/><use xlink:href="#q" transform="matrix(1,0,0,1,505,625) translate(83.475 49.4)"/></g><path d="M660 620h120v80H660z" stroke="#000" stroke-width="2" fill="#b391b5"/><g><use xlink:href="#aC" transform="matrix(1,0,0,1,665,625) translate(-7.375000000000007 27.799999999999997)"/><use xlink:href="#aD" transform="matrix(1,0,0,1,665,625) translate(27.049999999999997 49.4)"/></g><path d="M84 500c8.84 0 16 17.9 16 40s-7.16 40-16 40H36c-8.84 0-16-17.9-16-40s7.16-40 16-40z" stroke="#000" stroke-width="2" fill="#fff"/><g><use xlink:href="#a" transform="matrix(1,0,0,1,25,505) translate(19.525 27.799999999999997)"/><use xlink:href="#aq" transform="matrix(1,0,0,1,25,505) translate(15 49.4)"/></g><path d="M180 500h120v80H180z" stroke="#000" stroke-width="2" fill="#ccc"/><g><use xlink:href="#aE" transform="matrix(1,0,0,1,185,505) translate(11.049999999999997 17)"/><use xlink:href="#ab" transform="matrix(1,0,0,1,185,505) translate(9.549999999999997 38.6)"/><use xlink:href="#aF" transform="matrix(1,0,0,1,185,505) translate(44.55 38.6)"/><use xlink:href="#aG" transform="matrix(1,0,0,1,185,505) translate(2.549999999999997 60.2)"/></g><path d="M340 500h600v80H340z" stroke="#000" stroke-width="2" fill="#fff"/><g><use xlink:href="#D" transform="matrix(1,0,0,1,345,505) translate(199.625 38.6)"/><use xlink:href="#aH" transform="matrix(1,0,0,1,345,505) translate(258.525 38.6)"/><use xlink:href="#aI" transform="matrix(1,0,0,1,345,505) translate(330.525 38.6)"/></g><path d="M84 380c8.84 0 16 17.9 16 40s-7.16 40-16 40H36c-8.84 0-16-17.9-16-40s7.16-40 16-40z" stroke="#000" stroke-width="2" fill="#fff"/><g><use xlink:href="#o" transform="matrix(1,0,0,1,25,385) translate(7.149999999999999 27.799999999999997)"/><use xlink:href="#aJ" transform="matrix(1,0,0,1,25,385) translate(15 49.4)"/></g><path d="M84 260c8.84 0 16 17.9 16 40s-7.16 40-16 40H36c-8.84 0-16-17.9-16-40s7.16-40 16-40z" stroke="#000" stroke-width="2" fill="#fff"/><g><use xlink:href="#B" transform="matrix(1,0,0,1,25,265.0000000000002) translate(-0.9750000000000014 27.799999999999997)"/><use xlink:href="#aJ" transform="matrix(1,0,0,1,25,265.0000000000002) translate(15 49.4)"/></g><path d="M84 140c8.84 0 16 17.9 16 40s-7.16 40-16 40H36c-8.84 0-16-17.9-16-40s7.16-40 16-40z" stroke="#000" stroke-width="2" fill="#fff"/><g><use xlink:href="#a" transform="matrix(1,0,0,1,25,145.00000000000045) translate(19.525 27.799999999999997)"/><use xlink:href="#aJ" transform="matrix(1,0,0,1,25,145.00000000000045) translate(15 49.4)"/></g><path d="M180 140h120v80H180z" stroke="#000" stroke-width="2" fill="#ffc374"/><g><use xlink:href="#aK" transform="matrix(1,0,0,1,185,145.00000000000045) translate(21.849999999999994 27.799999999999997)"/><use xlink:href="#s" transform="matrix(1,0,0,1,185,145.00000000000045) translate(51.849999999999994 27.799999999999997)"/><use xlink:href="#t" transform="matrix(1,0,0,1,185,145.00000000000045) translate(27.05 49.4)"/></g><path d="M340 140h120v80H340z" stroke="#000" stroke-width="2" fill="#ffc374"/><g><use xlink:href="#aL" transform="matrix(1,0,0,1,345,145.00000000000045) translate(12.549999999999997 27.799999999999997)"/><use xlink:href="#aM" transform="matrix(1,0,0,1,345,145.00000000000045) translate(23.049999999999997 49.4)"/></g><path d="M500 140h120v80H500z" stroke="#000" stroke-width="2" fill="#ffc374"/><g><use xlink:href="#aN" transform="matrix(1,0,0,1,505,145.00000000000045) translate(1.5749999999999957 27.799999999999997)"/><use xlink:href="#aO" transform="matrix(1,0,0,1,505,145.00000000000045) translate(30.474999999999998 27.799999999999997)"/><use xlink:href="#O" transform="matrix(1,0,0,1,505,145.00000000000045) translate(78.42500000000001 27.799999999999997)"/><use xlink:href="#aP" transform="matrix(1,0,0,1,505,145.00000000000045) translate(17 49.4)"/></g><path d="M660 140h120v80H660z" stroke="#000" stroke-width="2" fill="#ffdf71"/><g><use xlink:href="#am" transform="matrix(1,0,0,1,665,145.00000000000045) translate(18.025 27.799999999999997)"/><use xlink:href="#an" transform="matrix(1,0,0,1,665,145.00000000000045) translate(4.549999999999997 49.4)"/><use xlink:href="#d" transform="matrix(1,0,0,1,665,145.00000000000045) translate(95.45 49.4)"/></g><path d="M820 140h120v80H820z" stroke="#000" stroke-width="2" fill="#ccc"/><g><use xlink:href="#aQ" transform="matrix(1,0,0,1,825,145.00000000000045) translate(7.049999999999997 17)"/><use xlink:href="#aR" transform="matrix(1,0,0,1,825,145.00000000000045) translate(74 17)"/><use xlink:href="#aS" transform="matrix(1,0,0,1,825,145.00000000000045) translate(32.55 38.6)"/><use xlink:href="#ap" transform="matrix(1,0,0,1,825,145.00000000000045) translate(21.549999999999997 60.2)"/></g><path d="M84 20c8.84 0 16 17.9 16 40s-7.16 40-16 40H36c-8.84 0-16-17.9-16-40s7.16-40 16-40z" stroke="#000" stroke-width="2" fill="#fff"/><g><use xlink:href="#o" transform="matrix(1,0,0,1,25,25.000000000000227) translate(7.149999999999999 27.799999999999997)"/><use xlink:href="#aT" transform="matrix(1,0,0,1,25,25.000000000000227) translate(15 49.4)"/></g><path d="M340 20h120v80H340z" stroke="#000" stroke-width="2" fill="#ffc374"/><g><use xlink:href="#aU" transform="matrix(1,0,0,1,345,25.000000000000227) translate(16.599999999999994 17)"/><use xlink:href="#aV" transform="matrix(1,0,0,1,345,25.000000000000227) translate(15 38.6)"/><use xlink:href="#aM" transform="matrix(1,0,0,1,345,25.000000000000227) translate(23.049999999999997 60.2)"/></g><path d="M500 20h120v80H500z" stroke="#000" stroke-width="2" fill="#ffdf71"/><g><use xlink:href="#g" transform="matrix(1,0,0,1,505,25.000000000000227) translate(6.524999999999999 27.799999999999997)"/><use xlink:href="#aW" transform="matrix(1,0,0,1,505,25.000000000000227) translate(73.475 27.799999999999997)"/><use xlink:href="#aX" transform="matrix(1,0,0,1,505,25.000000000000227) translate(8.574999999999996 49.4)"/><use xlink:href="#aY" transform="matrix(1,0,0,1,505,25.000000000000227) translate(25.574999999999996 49.4)"/></g><path d="M660 20h120v80H660z" stroke="#000" stroke-width="2" fill="#ffdf71"/><g><use xlink:href="#aZ" transform="matrix(1,0,0,1,665,25.000000000000227) translate(11.549999999999997 27.799999999999997)"/><use xlink:href="#ba" transform="matrix(1,0,0,1,665,25.000000000000227) translate(56.449999999999996 27.799999999999997)"/><use xlink:href="#aw" transform="matrix(1,0,0,1,665,25.000000000000227) translate(24.025 49.4)"/></g><path d="M820 20h120v80H820z" stroke="#000" stroke-width="2" fill="#ccc"/><g><use xlink:href="#bb" transform="matrix(1,0,0,1,825,25.000000000000227) translate(5.574999999999996 27.799999999999997)"/><use xlink:href="#bc" transform="matrix(1,0,0,1,825,25.000000000000227) translate(22.549999999999997 49.4)"/></g><path d="M660 1220h120v80H660z" stroke="#000" stroke-width="2" fill="#b391b5"/><g><use xlink:href="#bd" transform="matrix(1,0,0,1,665,1225) translate(5.549999999999997 17)"/><use xlink:href="#m" transform="matrix(1,0,0,1,665,1225) translate(3.0749999999999957 38.6)"/><use xlink:href="#be" transform="matrix(1,0,0,1,665,1225) translate(23.074999999999996 38.6)"/><use xlink:href="#ai" transform="matrix(1,0,0,1,665,1225) translate(1.124999999999993 60.2)"/></g><path d="M340 380h600v80H340z" stroke="#000" stroke-width="2" fill="#fff"/><g><use xlink:href="#D" transform="matrix(1,0,0,1,345,385) translate(199.625 38.6)"/><use xlink:href="#aH" transform="matrix(1,0,0,1,345,385) translate(258.525 38.6)"/><use xlink:href="#aI" transform="matrix(1,0,0,1,345,385) translate(330.525 38.6)"/></g><path d="M340 260h600v80H340z" stroke="#000" stroke-width="2" fill="#fff"/><g><use xlink:href="#D" transform="matrix(1,0,0,1,345,265) translate(199.625 38.6)"/><use xlink:href="#aH" transform="matrix(1,0,0,1,345,265) translate(258.525 38.6)"/><use xlink:href="#aI" transform="matrix(1,0,0,1,345,265) translate(330.525 38.6)"/></g><path d="M180 20h120v80H180z" stroke="#000" stroke-width="2" fill="#ffc374"/><g><use xlink:href="#aK" transform="matrix(1,0,0,1,185,25) translate(21.849999999999994 27.799999999999997)"/><use xlink:href="#s" transform="matrix(1,0,0,1,185,25) translate(51.849999999999994 27.799999999999997)"/><use xlink:href="#t" transform="matrix(1,0,0,1,185,25) translate(27.05 49.4)"/></g><defs><path d="M76-208v77h127v40H76V0H24v-248h183v40H76" id="bf"/><path d="M133-34C117-15 103 5 69 4 32 3 11-16 11-54c-1-60 55-63 116-61 1-26-3-47-28-47-18 1-26 9-28 27l-52-2c7-38 36-58 82-57s74 22 75 68l1 82c-1 14 12 18 25 15v27c-30 8-71 5-69-32zm-48 3c29 0 43-24 42-57-32 0-66-3-65 30 0 17 8 27 23 27" id="bg"/><path d="M25 0v-261h50V0H25" id="bh"/><g id="a"><use transform="matrix(0.05,0,0,0.05,0,0)" xlink:href="#bf"/><use transform="matrix(0.05,0,0,0.05,10.950000000000001,0)" xlink:href="#bg"/><use transform="matrix(0.05,0,0,0.05,20.950000000000003,0)" xlink:href="#bh"/><use transform="matrix(0.05,0,0,0.05,25.950000000000003,0)" xlink:href="#bh"/></g><path d="M182-182c0 78-84 86-111 141h115V0H12c-6-101 99-100 120-180 1-22-12-31-33-32-23 0-32 14-35 34l-49-3c5-45 32-70 84-70 51 0 83 22 83 69" id="bi"/><path d="M101-251c68 0 84 54 84 127C185-50 166 4 99 4S15-52 14-124c-1-75 17-127 87-127zm-1 216c37-5 36-46 36-89s4-89-36-89c-39 0-36 45-36 89 0 43-3 85 36 89" id="bj"/><path d="M23 0v-37h61v-169l-59 37v-38l62-41h46v211h57V0H23" id="bk"/><g id="b"><use transform="matrix(0.05,0,0,0.05,0,0)" xlink:href="#bi"/><use transform="matrix(0.05,0,0,0.05,10,0)" xlink:href="#bj"/><use transform="matrix(0.05,0,0,0.05,20,0)" xlink:href="#bk"/><use transform="matrix(0.05,0,0,0.05,30,0)" xlink:href="#bi"/></g><path d="M212-179c-10-28-35-45-73-45-59 0-87 40-87 99 0 60 29 101 89 101 43 0 62-24 78-52l27 14C228-24 195 4 139 4 59 4 22-46 18-125c-6-104 99-153 187-111 19 9 31 26 39 46" id="bl"/><path d="M141-36C126-15 110 5 73 4 37 3 15-17 15-53c-1-64 63-63 125-63 3-35-9-54-41-54-24 1-41 7-42 31l-33-3c5-37 33-52 76-52 45 0 72 20 72 64v82c-1 20 7 32 28 27v20c-31 9-61-2-59-35zM48-53c0 20 12 33 32 33 41-3 63-29 60-74-43 2-92-5-92 41" id="bm"/><path d="M24 0v-261h32V0H24" id="bn"/><path d="M96-169c-40 0-48 33-48 73s9 75 48 75c24 0 41-14 43-38l32 2c-6 37-31 61-74 61-59 0-76-41-82-99-10-93 101-131 147-64 4 7 5 14 7 22l-32 3c-4-21-16-35-41-35" id="bo"/><path d="M84 4C-5 8 30-112 23-190h32v120c0 31 7 50 39 49 72-2 45-101 50-169h31l1 190h-30c-1-10 1-25-2-33-11 22-28 36-60 37" id="bp"/><path d="M135-143c-3-34-86-38-87 0 15 53 115 12 119 90S17 21 10-45l28-5c4 36 97 45 98 0-10-56-113-15-118-90-4-57 82-63 122-42 12 7 21 19 24 35" id="bq"/><g id="c"><use transform="matrix(0.05,0,0,0.05,0,0)" xlink:href="#bl"/><use transform="matrix(0.05,0,0,0.05,12.950000000000001,0)" xlink:href="#bm"/><use transform="matrix(0.05,0,0,0.05,22.950000000000003,0)" xlink:href="#bn"/><use transform="matrix(0.05,0,0,0.05,26.900000000000002,0)" xlink:href="#bo"/><use transform="matrix(0.05,0,0,0.05,35.900000000000006,0)" xlink:href="#bp"/><use transform="matrix(0.05,0,0,0.05,45.900000000000006,0)" xlink:href="#bn"/><use transform="matrix(0.05,0,0,0.05,49.85000000000001,0)" xlink:href="#bp"/><use transform="matrix(0.05,0,0,0.05,59.85,0)" xlink:href="#bq"/></g><path d="M27 0v-27h64v-190l-56 39v-29l58-41h29v221h61V0H27" id="br"/><use transform="matrix(0.05,0,0,0.05,0,0)" xlink:href="#br" id="d"/><path d="M30 0v-248h33v221h125V0H30" id="bs"/><path d="M24-231v-30h32v30H24zM24 0v-190h32V0H24" id="bt"/><path d="M117-194c89-4 53 116 60 194h-32v-121c0-31-8-49-39-48C34-167 62-67 57 0H25l-1-190h30c1 10-1 24 2 32 11-22 29-35 61-36" id="bu"/><path d="M100-194c63 0 86 42 84 106H49c0 40 14 67 53 68 26 1 43-12 49-29l28 8c-11 28-37 45-77 45C44 4 14-33 15-96c1-61 26-98 85-98zm52 81c6-60-76-77-97-28-3 7-6 17-6 28h103" id="bv"/><path d="M114-163C36-179 61-72 57 0H25l-1-190h30c1 12-1 29 2 39 6-27 23-49 58-41v29" id="bw"/><g id="e"><use transform="matrix(0.05,0,0,0.05,0,0)" xlink:href="#bs"/><use transform="matrix(0.05,0,0,0.05,10,0)" xlink:href="#bt"/><use transform="matrix(0.05,0,0,0.05,13.949999999999998,0)" xlink:href="#bu"/><use transform="matrix(0.05,0,0,0.05,23.95,0)" xlink:href="#bv"/><use transform="matrix(0.05,0,0,0.05,33.95,0)" xlink:href="#bm"/><use transform="matrix(0.05,0,0,0.05,43.95,0)" xlink:href="#bw"/></g><path d="M205 0l-28-72H64L36 0H1l101-248h38L239 0h-34zm-38-99l-47-123c-12 45-31 82-46 123h93" id="bx"/><path d="M177-190C167-65 218 103 67 71c-23-6-38-20-44-43l32-5c15 47 100 32 89-28v-30C133-14 115 1 83 1 29 1 15-40 15-95c0-56 16-97 71-98 29-1 48 16 59 35 1-10 0-23 2-32h30zM94-22c36 0 50-32 50-73 0-42-14-75-50-75-39 0-46 34-46 75s6 73 46 73" id="by"/><path d="M115-194c53 0 69 39 70 98 0 66-23 100-70 100C84 3 66-7 56-30L54 0H23l1-261h32v101c10-23 28-34 59-34zm-8 174c40 0 45-34 45-75 0-40-5-75-45-74-42 0-51 32-51 76 0 43 10 73 51 73" id="bz"/><g id="f"><use transform="matrix(0.05,0,0,0.05,0,0)" xlink:href="#bx"/><use transform="matrix(0.05,0,0,0.05,12,0)" xlink:href="#bn"/><use transform="matrix(0.05,0,0,0.05,15.949999999999998,0)" xlink:href="#by"/><use transform="matrix(0.05,0,0,0.05,25.950000000000003,0)" xlink:href="#bv"/><use transform="matrix(0.05,0,0,0.05,35.95,0)" xlink:href="#bz"/><use transform="matrix(0.05,0,0,0.05,45.95,0)" xlink:href="#bw"/><use transform="matrix(0.05,0,0,0.05,51.900000000000006,0)" xlink:href="#bm"/></g><path d="M30-248c87 1 191-15 191 75 0 78-77 80-158 76V0H30v-248zm33 125c57 0 124 11 124-50 0-59-68-47-124-48v98" id="bA"/><path d="M106-169C34-169 62-67 57 0H25v-261h32l-1 103c12-21 28-36 61-36 89 0 53 116 60 194h-32v-121c2-32-8-49-39-48" id="bB"/><path d="M179-190L93 31C79 59 56 82 12 73V49c39 6 53-20 64-50L1-190h34L92-34l54-156h33" id="bC"/><g id="g"><use transform="matrix(0.05,0,0,0.05,0,0)" xlink:href="#bA"/><use transform="matrix(0.05,0,0,0.05,12,0)" xlink:href="#bB"/><use transform="matrix(0.05,0,0,0.05,22,0)" xlink:href="#bC"/><use transform="matrix(0.05,0,0,0.05,31,0)" xlink:href="#bq"/><use transform="matrix(0.05,0,0,0.05,40,0)" xlink:href="#bt"/><use transform="matrix(0.05,0,0,0.05,43.95,0)" xlink:href="#bo"/><use transform="matrix(0.05,0,0,0.05,52.95,0)" xlink:href="#bq"/></g><path d="M210-169c-67 3-38 105-44 169h-31v-121c0-29-5-50-35-48C34-165 62-65 56 0H25l-1-190h30c1 10-1 24 2 32 10-44 99-50 107 0 11-21 27-35 58-36 85-2 47 119 55 194h-31v-121c0-29-5-49-35-48" id="bD"/><path d="M59-47c-2 24 18 29 38 22v24C64 9 27 4 27-40v-127H5v-23h24l9-43h21v43h35v23H59v120" id="bE"/><g id="h"><use transform="matrix(0.05,0,0,0.05,0,0)" xlink:href="#bl"/><use transform="matrix(0.05,0,0,0.05,12.950000000000001,0)" xlink:href="#bB"/><use transform="matrix(0.05,0,0,0.05,22.950000000000003,0)" xlink:href="#bv"/><use transform="matrix(0.05,0,0,0.05,32.95,0)" xlink:href="#bD"/><use transform="matrix(0.05,0,0,0.05,47.900000000000006,0)" xlink:href="#bt"/><use transform="matrix(0.05,0,0,0.05,51.85,0)" xlink:href="#bq"/><use transform="matrix(0.05,0,0,0.05,60.85,0)" xlink:href="#bE"/><use transform="matrix(0.05,0,0,0.05,65.85000000000001,0)" xlink:href="#bw"/><use transform="matrix(0.05,0,0,0.05,71.80000000000001,0)" xlink:href="#bC"/></g><path d="M101-234c-31-9-42 10-38 44h38v23H63V0H32v-167H5v-23h27c-7-52 17-82 69-68v24" id="bF"/><path d="M100-194c62-1 85 37 85 99 1 63-27 99-86 99S16-35 15-95c0-66 28-99 85-99zM99-20c44 1 53-31 53-75 0-43-8-75-51-75s-53 32-53 75 10 74 51 75" id="bG"/><g id="i"><use transform="matrix(0.05,0,0,0.05,0,0)" xlink:href="#bF"/><use transform="matrix(0.05,0,0,0.05,5,0)" xlink:href="#bG"/><use transform="matrix(0.05,0,0,0.05,15,0)" xlink:href="#bw"/></g><path d="M30 0v-248h187v28H63v79h144v27H63v87h162V0H30" id="bH"/><g id="j"><use transform="matrix(0.05,0,0,0.05,0,0)" xlink:href="#bH"/><use transform="matrix(0.05,0,0,0.05,12,0)" xlink:href="#bu"/><use transform="matrix(0.05,0,0,0.05,22,0)" xlink:href="#by"/><use transform="matrix(0.05,0,0,0.05,32,0)" xlink:href="#bt"/><use transform="matrix(0.05,0,0,0.05,35.95,0)" xlink:href="#bu"/><use transform="matrix(0.05,0,0,0.05,45.95,0)" xlink:href="#bv"/><use transform="matrix(0.05,0,0,0.05,55.95,0)" xlink:href="#bv"/><use transform="matrix(0.05,0,0,0.05,65.95,0)" xlink:href="#bw"/><use transform="matrix(0.05,0,0,0.05,71.9,0)" xlink:href="#bq"/></g><path d="M127-220V0H93v-220H8v-28h204v28h-85" id="bI"/><g id="k"><use transform="matrix(0.05,0,0,0.05,0,0)" xlink:href="#bI"/><use transform="matrix(0.05,0,0,0.05,10.950000000000001,0)" xlink:href="#bB"/><use transform="matrix(0.05,0,0,0.05,20.950000000000003,0)" xlink:href="#bv"/></g><path d="M240 0l2-218c-23 76-54 145-80 218h-23L58-218 59 0H30v-248h44l77 211c21-75 51-140 76-211h43V0h-30" id="bJ"/><g id="l"><use transform="matrix(0.05,0,0,0.05,0,0)" xlink:href="#bJ"/><use transform="matrix(0.05,0,0,0.05,14.950000000000001,0)" xlink:href="#bv"/><use transform="matrix(0.05,0,0,0.05,24.950000000000003,0)" xlink:href="#bm"/><use transform="matrix(0.05,0,0,0.05,34.95,0)" xlink:href="#bu"/><use transform="matrix(0.05,0,0,0.05,44.95,0)" xlink:href="#bt"/><use transform="matrix(0.05,0,0,0.05,48.900000000000006,0)" xlink:href="#bu"/><use transform="matrix(0.05,0,0,0.05,58.900000000000006,0)" xlink:href="#by"/></g><g id="m"><use transform="matrix(0.05,0,0,0.05,0,0)" xlink:href="#bG"/><use transform="matrix(0.05,0,0,0.05,10,0)" xlink:href="#bF"/></g><g id="n"><use transform="matrix(0.05,0,0,0.05,0,0)" xlink:href="#bs"/><use transform="matrix(0.05,0,0,0.05,10,0)" xlink:href="#bt"/><use transform="matrix(0.05,0,0,0.05,13.949999999999998,0)" xlink:href="#bF"/><use transform="matrix(0.05,0,0,0.05,18.95,0)" xlink:href="#bv"/></g><path d="M275 0h-61l-44-196L126 0H64L0-248h53L97-49l45-199h58l43 199 44-199h52" id="bK"/><path d="M25-224v-37h50v37H25zM25 0v-190h50V0H25" id="bL"/><path d="M135-194c87-1 58 113 63 194h-50c-7-57 23-157-34-157-59 0-34 97-39 157H25l-1-190h47c2 12-1 28 3 38 12-26 28-41 61-42" id="bM"/><path d="M115-3C79 11 28 4 28-45v-112H4v-33h27l15-45h31v45h36v33H77v99c-1 23 16 31 38 25v30" id="bN"/><path d="M185-48c-13 30-37 53-82 52C43 2 14-33 14-96s30-98 90-98c62 0 83 45 84 108H66c0 31 8 55 39 56 18 0 30-7 34-22zm-45-69c5-46-57-63-70-21-2 6-4 13-4 21h74" id="bO"/><path d="M135-150c-39-12-60 13-60 57V0H25l-1-190h47c2 13-1 29 3 40 6-28 27-53 61-41v41" id="bP"/><g id="o"><use transform="matrix(0.05,0,0,0.05,0,0)" xlink:href="#bK"/><use transform="matrix(0.05,0,0,0.05,16.8,0)" xlink:href="#bL"/><use transform="matrix(0.05,0,0,0.05,21.8,0)" xlink:href="#bM"/><use transform="matrix(0.05,0,0,0.05,32.75,0)" xlink:href="#bN"/><use transform="matrix(0.05,0,0,0.05,38.7,0)" xlink:href="#bO"/><use transform="matrix(0.05,0,0,0.05,48.7,0)" xlink:href="#bP"/></g><path d="M128-127c34 4 56 21 59 58 7 91-148 94-172 28-4-9-6-17-7-26l51-5c1 24 16 35 40 36 23 0 39-12 38-36-1-31-31-36-65-34v-40c32 2 59-3 59-33 0-20-13-33-34-33s-33 13-35 32l-50-3c6-44 37-68 86-68 50 0 83 20 83 66 0 35-22 52-53 58" id="bQ"/><g id="p"><use transform="matrix(0.05,0,0,0.05,0,0)" xlink:href="#bi"/><use transform="matrix(0.05,0,0,0.05,10,0)" xlink:href="#bj"/><use transform="matrix(0.05,0,0,0.05,20,0)" xlink:href="#bk"/><use transform="matrix(0.05,0,0,0.05,30,0)" xlink:href="#bQ"/></g><path d="M101-251c82-7 93 87 43 132L82-64C71-53 59-42 53-27h129V0H18c2-99 128-94 128-182 0-28-16-43-45-43s-46 15-49 41l-32-3c6-41 34-60 81-64" id="bR"/><use transform="matrix(0.05,0,0,0.05,0,0)" xlink:href="#bR" id="q"/><path d="M63-220v92h138v28H63V0H30v-248h175v28H63" id="bS"/><g id="r"><use transform="matrix(0.05,0,0,0.05,0,0)" xlink:href="#bS"/><use transform="matrix(0.05,0,0,0.05,10.950000000000001,0)" xlink:href="#bt"/><use transform="matrix(0.05,0,0,0.05,14.9,0)" xlink:href="#bw"/><use transform="matrix(0.05,0,0,0.05,20.85,0)" xlink:href="#bq"/><use transform="matrix(0.05,0,0,0.05,29.85,0)" xlink:href="#bE"/></g><path d="M137-103V0h-34v-103L8-248h37l75 118 75-118h37" id="bT"/><g id="s"><use transform="matrix(0.05,0,0,0.05,0,0)" xlink:href="#bT"/><use transform="matrix(0.05,0,0,0.05,10.35,0)" xlink:href="#bv"/><use transform="matrix(0.05,0,0,0.05,20.35,0)" xlink:href="#bm"/><use transform="matrix(0.05,0,0,0.05,30.35,0)" xlink:href="#bw"/></g><path d="M24-231v-30h32v30H24zM-9 49c24 4 33-6 33-30v-209h32V24c2 40-23 58-65 49V49" id="bU"/><g id="t"><use transform="matrix(0.05,0,0,0.05,0,0)" xlink:href="#bA"/><use transform="matrix(0.05,0,0,0.05,12,0)" xlink:href="#bw"/><use transform="matrix(0.05,0,0,0.05,17.95,0)" xlink:href="#bG"/><use transform="matrix(0.05,0,0,0.05,27.950000000000003,0)" xlink:href="#bU"/><use transform="matrix(0.05,0,0,0.05,31.899999999999995,0)" xlink:href="#bv"/><use transform="matrix(0.05,0,0,0.05,41.9,0)" xlink:href="#bo"/><use transform="matrix(0.05,0,0,0.05,50.9,0)" xlink:href="#bE"/></g><g id="u"><use transform="matrix(0.05,0,0,0.05,0,0)" xlink:href="#bA"/><use transform="matrix(0.05,0,0,0.05,12,0)" xlink:href="#bw"/><use transform="matrix(0.05,0,0,0.05,17.95,0)" xlink:href="#bG"/><use transform="matrix(0.05,0,0,0.05,27.950000000000003,0)" xlink:href="#bz"/><use transform="matrix(0.05,0,0,0.05,37.95,0)" xlink:href="#bn"/><use transform="matrix(0.05,0,0,0.05,41.900000000000006,0)" xlink:href="#bv"/><use transform="matrix(0.05,0,0,0.05,51.900000000000006,0)" xlink:href="#bD"/></g><path d="M185-189c-5-48-123-54-124 2 14 75 158 14 163 119 3 78-121 87-175 55-17-10-28-26-33-46l33-7c5 56 141 63 141-1 0-78-155-14-162-118-5-82 145-84 179-34 5 7 8 16 11 25" id="bV"/><path d="M108 0H70L1-190h34L89-25l56-165h34" id="bW"/><g id="v"><use transform="matrix(0.05,0,0,0.05,0,0)" xlink:href="#bV"/><use transform="matrix(0.05,0,0,0.05,12,0)" xlink:href="#bG"/><use transform="matrix(0.05,0,0,0.05,22,0)" xlink:href="#bn"/><use transform="matrix(0.05,0,0,0.05,25.950000000000003,0)" xlink:href="#bW"/><use transform="matrix(0.05,0,0,0.05,34.95,0)" xlink:href="#bt"/><use transform="matrix(0.05,0,0,0.05,38.900000000000006,0)" xlink:href="#bu"/><use transform="matrix(0.05,0,0,0.05,48.900000000000006,0)" xlink:href="#by"/></g><path d="M234-2c-28 10-62 0-77-18C117 19 8 12 13-65c3-43 29-61 60-76-25-40-17-114 47-108 35 3 59 15 59 50 0 44-40 53-71 69 14 26 32 50 51 72 14-21 24-43 30-72l26 8c-9 33-21 57-38 82 13 13 33 22 57 15v23zM97-151c25-10 52-18 56-48-1-18-13-29-33-29-42 0-39 50-23 77zM42-66c-3 51 71 58 98 28-20-24-41-51-56-80-23 10-40 24-42 52" id="bX"/><use transform="matrix(0.05,0,0,0.05,0,0)" xlink:href="#bX" id="w"/><path d="M115-194c55 1 70 41 70 98S169 2 115 4C84 4 66-9 55-30l1 105H24l-1-265h31l2 30c10-21 28-34 59-34zm-8 174c40 0 45-34 45-75s-6-73-45-74c-42 0-51 32-51 76 0 43 10 73 51 73" id="bY"/><g id="x"><use transform="matrix(0.05,0,0,0.05,0,0)" xlink:href="#bl"/><use transform="matrix(0.05,0,0,0.05,12.950000000000001,0)" xlink:href="#bG"/><use transform="matrix(0.05,0,0,0.05,22.950000000000003,0)" xlink:href="#bD"/><use transform="matrix(0.05,0,0,0.05,37.900000000000006,0)" xlink:href="#bY"/><use transform="matrix(0.05,0,0,0.05,47.900000000000006,0)" xlink:href="#bp"/><use transform="matrix(0.05,0,0,0.05,57.900000000000006,0)" xlink:href="#bE"/><use transform="matrix(0.05,0,0,0.05,62.900000000000006,0)" xlink:href="#bv"/><use transform="matrix(0.05,0,0,0.05,72.9,0)" xlink:href="#bw"/><use transform="matrix(0.05,0,0,0.05,78.85000000000001,0)" xlink:href="#bq"/></g><g id="y"><use transform="matrix(0.05,0,0,0.05,0,0)" xlink:href="#bl"/><use transform="matrix(0.05,0,0,0.05,12.950000000000001,0)" xlink:href="#bG"/><use transform="matrix(0.05,0,0,0.05,22.950000000000003,0)" xlink:href="#bD"/><use transform="matrix(0.05,0,0,0.05,37.900000000000006,0)" xlink:href="#bD"/><use transform="matrix(0.05,0,0,0.05,52.85,0)" xlink:href="#bu"/><use transform="matrix(0.05,0,0,0.05,62.85,0)" xlink:href="#bt"/><use transform="matrix(0.05,0,0,0.05,66.80000000000001,0)" xlink:href="#bo"/><use transform="matrix(0.05,0,0,0.05,75.80000000000001,0)" xlink:href="#bm"/><use transform="matrix(0.05,0,0,0.05,85.80000000000001,0)" xlink:href="#bE"/><use transform="matrix(0.05,0,0,0.05,90.80000000000001,0)" xlink:href="#bt"/><use transform="matrix(0.05,0,0,0.05,94.75000000000001,0)" xlink:href="#bG"/><use transform="matrix(0.05,0,0,0.05,104.75,0)" xlink:href="#bu"/></g><g id="z"><use transform="matrix(0.05,0,0,0.05,0,0)" xlink:href="#bF"/><use transform="matrix(0.05,0,0,0.05,5,0)" xlink:href="#bG"/><use transform="matrix(0.05,0,0,0.05,15,0)" xlink:href="#bw"/></g><g id="A"><use transform="matrix(0.05,0,0,0.05,0,0)" xlink:href="#bH"/><use transform="matrix(0.05,0,0,0.05,12,0)" xlink:href="#bu"/><use transform="matrix(0.05,0,0,0.05,22,0)" xlink:href="#by"/><use transform="matrix(0.05,0,0,0.05,32,0)" xlink:href="#bt"/><use transform="matrix(0.05,0,0,0.05,35.95,0)" xlink:href="#bu"/><use transform="matrix(0.05,0,0,0.05,45.95,0)" xlink:href="#bv"/><use transform="matrix(0.05,0,0,0.05,55.95,0)" xlink:href="#bv"/><use transform="matrix(0.05,0,0,0.05,65.95,0)" xlink:href="#bw"/><use transform="matrix(0.05,0,0,0.05,71.9,0)" xlink:href="#bq"/></g><path d="M169-182c-1-43-94-46-97-3 18 66 151 10 154 114 3 95-165 93-204 36-6-8-10-19-12-30l50-8c3 46 112 56 116 5-17-69-150-10-154-114-4-87 153-88 188-35 5 8 8 18 10 28" id="bZ"/><path d="M85 4C-2 5 27-109 22-190h50c7 57-23 150 33 157 60-5 35-97 40-157h50l1 190h-47c-2-12 1-28-3-38-12 25-28 42-61 42" id="ca"/><path d="M220-157c-53 9-28 100-34 157h-49v-107c1-27-5-49-29-50C55-147 81-57 75 0H25l-1-190h47c2 12-1 28 3 38 10-53 101-56 108 0 13-22 24-43 59-42 82 1 51 116 57 194h-49v-107c-1-25-5-48-29-50" id="cb"/><g id="B"><use transform="matrix(0.05,0,0,0.05,0,0)" xlink:href="#bZ"/><use transform="matrix(0.05,0,0,0.05,12,0)" xlink:href="#ca"/><use transform="matrix(0.05,0,0,0.05,22.950000000000003,0)" xlink:href="#cb"/><use transform="matrix(0.05,0,0,0.05,38.95,0)" xlink:href="#cb"/><use transform="matrix(0.05,0,0,0.05,54.95,0)" xlink:href="#bO"/><use transform="matrix(0.05,0,0,0.05,64.95,0)" xlink:href="#bP"/></g><path d="M126-127c33 6 58 20 58 59 0 88-139 92-164 29-3-8-5-16-6-25l32-3c6 27 21 44 54 44 32 0 52-15 52-46 0-38-36-46-79-43v-28c39 1 72-4 72-42 0-27-17-43-46-43-28 0-47 15-49 41l-32-3c6-42 35-63 81-64 48-1 79 21 79 65 0 36-21 52-52 59" id="cc"/><use transform="matrix(0.05,0,0,0.05,0,0)" xlink:href="#cc" id="C"/><path d="M16-82v-28h88v28H16" id="cd"/><path d="M33-154v-36h34v36H33zM33 0v-36h34V0H33" id="ce"/><g id="D"><use transform="matrix(0.05,0,0,0.05,0,0)" xlink:href="#bl"/><use transform="matrix(0.05,0,0,0.05,12.950000000000001,0)" xlink:href="#bG"/><use transform="matrix(0.05,0,0,0.05,22.950000000000003,0)" xlink:href="#cd"/><use transform="matrix(0.05,0,0,0.05,28.900000000000002,0)" xlink:href="#bG"/><use transform="matrix(0.05,0,0,0.05,38.900000000000006,0)" xlink:href="#bY"/><use transform="matrix(0.05,0,0,0.05,48.900000000000006,0)" xlink:href="#ce"/></g><path d="M85-194c31 0 48 13 60 33l-1-100h32l1 261h-30c-2-10 0-23-3-31C134-8 116 4 85 4 32 4 16-35 15-94c0-66 23-100 70-100zm9 24c-40 0-46 34-46 75 0 40 6 74 45 74 42 0 51-32 51-76 0-42-9-74-50-73" id="cf"/><g id="E"><use transform="matrix(0.05,0,0,0.05,0,0)" xlink:href="#bJ"/><use transform="matrix(0.05,0,0,0.05,14.950000000000001,0)" xlink:href="#bG"/><use transform="matrix(0.05,0,0,0.05,24.950000000000003,0)" xlink:href="#cf"/><use transform="matrix(0.05,0,0,0.05,34.95,0)" xlink:href="#bv"/><use transform="matrix(0.05,0,0,0.05,44.95,0)" xlink:href="#bn"/><use transform="matrix(0.05,0,0,0.05,48.900000000000006,0)" xlink:href="#bt"/><use transform="matrix(0.05,0,0,0.05,52.85,0)" xlink:href="#bu"/><use transform="matrix(0.05,0,0,0.05,62.85,0)" xlink:href="#by"/></g><path d="M140-251c81 0 123 46 123 126C263-46 219 4 140 4 59 4 17-45 17-125s42-126 123-126zm0 227c63 0 89-41 89-101s-29-99-89-99c-61 0-89 39-89 99S79-25 140-24" id="cg"/><g id="F"><use transform="matrix(0.05,0,0,0.05,0,0)" xlink:href="#cg"/><use transform="matrix(0.05,0,0,0.05,14,0)" xlink:href="#bY"/><use transform="matrix(0.05,0,0,0.05,24,0)" xlink:href="#bE"/><use transform="matrix(0.05,0,0,0.05,29,0)" xlink:href="#bt"/><use transform="matrix(0.05,0,0,0.05,32.95,0)" xlink:href="#bo"/><use transform="matrix(0.05,0,0,0.05,41.95,0)" xlink:href="#bm"/><use transform="matrix(0.05,0,0,0.05,51.95,0)" xlink:href="#bn"/></g><g id="G"><use transform="matrix(0.05,0,0,0.05,0,0)" xlink:href="#bV"/><use transform="matrix(0.05,0,0,0.05,12,0)" xlink:href="#bt"/><use transform="matrix(0.05,0,0,0.05,15.949999999999998,0)" xlink:href="#by"/><use transform="matrix(0.05,0,0,0.05,25.950000000000003,0)" xlink:href="#bu"/><use transform="matrix(0.05,0,0,0.05,35.95,0)" xlink:href="#bm"/><use transform="matrix(0.05,0,0,0.05,45.95,0)" xlink:href="#bn"/><use transform="matrix(0.05,0,0,0.05,49.900000000000006,0)" xlink:href="#bq"/></g><g id="H"><use transform="matrix(0.05,0,0,0.05,0,0)" xlink:href="#bt"/><use transform="matrix(0.05,0,0,0.05,3.95,0)" xlink:href="#bu"/></g><path d="M190 0L58-211 59 0H30v-248h39L202-35l-2-213h31V0h-41" id="ch"/><g id="I"><use transform="matrix(0.05,0,0,0.05,0,0)" xlink:href="#ch"/><use transform="matrix(0.05,0,0,0.05,12.950000000000001,0)" xlink:href="#bG"/><use transform="matrix(0.05,0,0,0.05,22.950000000000003,0)" xlink:href="#bu"/><use transform="matrix(0.05,0,0,0.05,32.95,0)" xlink:href="#bn"/><use transform="matrix(0.05,0,0,0.05,36.900000000000006,0)" xlink:href="#bt"/><use transform="matrix(0.05,0,0,0.05,40.85000000000001,0)" xlink:href="#bu"/><use transform="matrix(0.05,0,0,0.05,50.85000000000001,0)" xlink:href="#bv"/><use transform="matrix(0.05,0,0,0.05,60.85,0)" xlink:href="#bm"/><use transform="matrix(0.05,0,0,0.05,70.85000000000001,0)" xlink:href="#bw"/></g><g id="J"><use transform="matrix(0.05,0,0,0.05,0,0)" xlink:href="#bI"/><use transform="matrix(0.05,0,0,0.05,10.3,0)" xlink:href="#bw"/><use transform="matrix(0.05,0,0,0.05,16.25,0)" xlink:href="#bm"/><use transform="matrix(0.05,0,0,0.05,26.25,0)" xlink:href="#bu"/><use transform="matrix(0.05,0,0,0.05,36.25,0)" xlink:href="#bq"/><use transform="matrix(0.05,0,0,0.05,45.25,0)" xlink:href="#bD"/><use transform="matrix(0.05,0,0,0.05,60.2,0)" xlink:href="#bt"/><use transform="matrix(0.05,0,0,0.05,64.15,0)" xlink:href="#bq"/><use transform="matrix(0.05,0,0,0.05,73.15,0)" xlink:href="#bq"/><use transform="matrix(0.05,0,0,0.05,82.15,0)" xlink:href="#bt"/><use transform="matrix(0.05,0,0,0.05,86.10000000000001,0)" xlink:href="#bG"/><use transform="matrix(0.05,0,0,0.05,96.10000000000001,0)" xlink:href="#bu"/></g><g id="K"><use transform="matrix(0.05,0,0,0.05,0,0)" xlink:href="#bJ"/><use transform="matrix(0.05,0,0,0.05,14.950000000000001,0)" xlink:href="#bv"/><use transform="matrix(0.05,0,0,0.05,24.950000000000003,0)" xlink:href="#cf"/><use transform="matrix(0.05,0,0,0.05,34.95,0)" xlink:href="#bt"/><use transform="matrix(0.05,0,0,0.05,38.900000000000006,0)" xlink:href="#bm"/></g><g id="L"><use transform="matrix(0.05,0,0,0.05,0,0)" xlink:href="#bV"/><use transform="matrix(0.05,0,0,0.05,12,0)" xlink:href="#bC"/><use transform="matrix(0.05,0,0,0.05,21,0)" xlink:href="#bD"/><use transform="matrix(0.05,0,0,0.05,35.95,0)" xlink:href="#bz"/><use transform="matrix(0.05,0,0,0.05,45.95,0)" xlink:href="#bG"/><use transform="matrix(0.05,0,0,0.05,55.95,0)" xlink:href="#bn"/><use transform="matrix(0.05,0,0,0.05,59.900000000000006,0)" xlink:href="#bt"/><use transform="matrix(0.05,0,0,0.05,63.85,0)" xlink:href="#bo"/></g><g id="M"><use transform="matrix(0.05,0,0,0.05,0,0)" xlink:href="#bs"/><use transform="matrix(0.05,0,0,0.05,10,0)" xlink:href="#bG"/><use transform="matrix(0.05,0,0,0.05,20,0)" xlink:href="#by"/><use transform="matrix(0.05,0,0,0.05,30,0)" xlink:href="#bt"/><use transform="matrix(0.05,0,0,0.05,33.95,0)" xlink:href="#bo"/></g><g id="N"><use transform="matrix(0.05,0,0,0.05,0,0)" xlink:href="#bl"/><use transform="matrix(0.05,0,0,0.05,12.950000000000001,0)" xlink:href="#bt"/><use transform="matrix(0.05,0,0,0.05,16.900000000000002,0)" xlink:href="#bw"/><use transform="matrix(0.05,0,0,0.05,22.85,0)" xlink:href="#bo"/><use transform="matrix(0.05,0,0,0.05,31.85,0)" xlink:href="#bp"/><use transform="matrix(0.05,0,0,0.05,41.85,0)" xlink:href="#bt"/><use transform="matrix(0.05,0,0,0.05,45.800000000000004,0)" xlink:href="#bE"/><use transform="matrix(0.05,0,0,0.05,50.800000000000004,0)" xlink:href="#bq"/></g><g id="O"><use transform="matrix(0.05,0,0,0.05,0,0)" xlink:href="#bm"/><use transform="matrix(0.05,0,0,0.05,10,0)" xlink:href="#bu"/><use transform="matrix(0.05,0,0,0.05,20,0)" xlink:href="#cf"/></g><g id="P"><use transform="matrix(0.05,0,0,0.05,0,0)" xlink:href="#bV"/><use transform="matrix(0.05,0,0,0.05,12,0)" xlink:href="#bt"/><use transform="matrix(0.05,0,0,0.05,15.949999999999998,0)" xlink:href="#by"/><use transform="matrix(0.05,0,0,0.05,25.950000000000003,0)" xlink:href="#bu"/><use transform="matrix(0.05,0,0,0.05,35.95,0)" xlink:href="#bm"/><use transform="matrix(0.05,0,0,0.05,45.95,0)" xlink:href="#bn"/><use transform="matrix(0.05,0,0,0.05,49.900000000000006,0)" xlink:href="#bq"/></g><g id="Q"><use transform="matrix(0.05,0,0,0.05,0,0)" xlink:href="#bJ"/><use transform="matrix(0.05,0,0,0.05,14.950000000000001,0)" xlink:href="#bG"/><use transform="matrix(0.05,0,0,0.05,24.950000000000003,0)" xlink:href="#cf"/><use transform="matrix(0.05,0,0,0.05,34.95,0)" xlink:href="#bv"/><use transform="matrix(0.05,0,0,0.05,44.95,0)" xlink:href="#bw"/><use transform="matrix(0.05,0,0,0.05,50.900000000000006,0)" xlink:href="#bu"/></g><g id="R"><use transform="matrix(0.05,0,0,0.05,0,0)" xlink:href="#bA"/><use transform="matrix(0.05,0,0,0.05,12,0)" xlink:href="#bB"/><use transform="matrix(0.05,0,0,0.05,22,0)" xlink:href="#bC"/><use transform="matrix(0.05,0,0,0.05,31,0)" xlink:href="#bq"/><use transform="matrix(0.05,0,0,0.05,40,0)" xlink:href="#bt"/><use transform="matrix(0.05,0,0,0.05,43.95,0)" xlink:href="#bo"/><use transform="matrix(0.05,0,0,0.05,52.95,0)" xlink:href="#bq"/></g><g id="S"><use transform="matrix(0.05,0,0,0.05,0,0)" xlink:href="#ch"/><use transform="matrix(0.05,0,0,0.05,12.950000000000001,0)" xlink:href="#bp"/><use transform="matrix(0.05,0,0,0.05,22.950000000000003,0)" xlink:href="#bD"/><use transform="matrix(0.05,0,0,0.05,37.900000000000006,0)" xlink:href="#bv"/><use transform="matrix(0.05,0,0,0.05,47.900000000000006,0)" xlink:href="#bw"/><use transform="matrix(0.05,0,0,0.05,53.85,0)" xlink:href="#bt"/><use transform="matrix(0.05,0,0,0.05,57.80000000000001,0)" xlink:href="#bo"/><use transform="matrix(0.05,0,0,0.05,66.80000000000001,0)" xlink:href="#bm"/><use transform="matrix(0.05,0,0,0.05,76.80000000000001,0)" xlink:href="#bn"/></g><g id="T"><use transform="matrix(0.05,0,0,0.05,0,0)" xlink:href="#bJ"/><use transform="matrix(0.05,0,0,0.05,14.950000000000001,0)" xlink:href="#bv"/><use transform="matrix(0.05,0,0,0.05,24.950000000000003,0)" xlink:href="#bE"/><use transform="matrix(0.05,0,0,0.05,29.950000000000003,0)" xlink:href="#bB"/><use transform="matrix(0.05,0,0,0.05,39.95,0)" xlink:href="#bG"/><use transform="matrix(0.05,0,0,0.05,49.95,0)" xlink:href="#cf"/><use transform="matrix(0.05,0,0,0.05,59.95,0)" xlink:href="#bq"/></g><path d="M165-50V0h-47v-50H5v-38l105-160h55v161h33v37h-33zm-47-37l2-116L46-87h72" id="ci"/><g id="U"><use transform="matrix(0.05,0,0,0.05,0,0)" xlink:href="#bi"/><use transform="matrix(0.05,0,0,0.05,10,0)" xlink:href="#bj"/><use transform="matrix(0.05,0,0,0.05,20,0)" xlink:href="#bk"/><use transform="matrix(0.05,0,0,0.05,30,0)" xlink:href="#ci"/></g><g id="V"><use transform="matrix(0.05,0,0,0.05,0,0)" xlink:href="#bJ"/><use transform="matrix(0.05,0,0,0.05,14.950000000000001,0)" xlink:href="#bm"/><use transform="matrix(0.05,0,0,0.05,24.950000000000003,0)" xlink:href="#bE"/><use transform="matrix(0.05,0,0,0.05,29.950000000000003,0)" xlink:href="#bB"/><use transform="matrix(0.05,0,0,0.05,39.95,0)" xlink:href="#bv"/><use transform="matrix(0.05,0,0,0.05,49.95,0)" xlink:href="#bD"/><use transform="matrix(0.05,0,0,0.05,64.9,0)" xlink:href="#bm"/><use transform="matrix(0.05,0,0,0.05,74.9,0)" xlink:href="#bE"/><use transform="matrix(0.05,0,0,0.05,79.9,0)" xlink:href="#bt"/><use transform="matrix(0.05,0,0,0.05,83.85000000000001,0)" xlink:href="#bo"/><use transform="matrix(0.05,0,0,0.05,92.85000000000001,0)" xlink:href="#bm"/><use transform="matrix(0.05,0,0,0.05,102.85000000000001,0)" xlink:href="#bn"/></g><g id="W"><use transform="matrix(0.05,0,0,0.05,0,0)" xlink:href="#bH"/><use transform="matrix(0.05,0,0,0.05,12,0)" xlink:href="#bn"/><use transform="matrix(0.05,0,0,0.05,15.949999999999998,0)" xlink:href="#bv"/><use transform="matrix(0.05,0,0,0.05,25.950000000000003,0)" xlink:href="#bo"/><use transform="matrix(0.05,0,0,0.05,34.95,0)" xlink:href="#bE"/><use transform="matrix(0.05,0,0,0.05,39.95,0)" xlink:href="#bw"/><use transform="matrix(0.05,0,0,0.05,45.900000000000006,0)" xlink:href="#bG"/><use transform="matrix(0.05,0,0,0.05,55.900000000000006,0)" xlink:href="#bu"/><use transform="matrix(0.05,0,0,0.05,65.9,0)" xlink:href="#bt"/><use transform="matrix(0.05,0,0,0.05,69.85000000000001,0)" xlink:href="#bo"/><use transform="matrix(0.05,0,0,0.05,78.85000000000001,0)" xlink:href="#bq"/></g><path d="M206 0h-36l-40-164L89 0H53L-1-190h32L70-26l43-164h34l41 164 42-164h31" id="cj"/><g id="X"><use transform="matrix(0.05,0,0,0.05,0,0)" xlink:href="#bV"/><use transform="matrix(0.05,0,0,0.05,12,0)" xlink:href="#cj"/><use transform="matrix(0.05,0,0,0.05,24.950000000000003,0)" xlink:href="#bt"/><use transform="matrix(0.05,0,0,0.05,28.900000000000002,0)" xlink:href="#bE"/><use transform="matrix(0.05,0,0,0.05,33.900000000000006,0)" xlink:href="#bo"/><use transform="matrix(0.05,0,0,0.05,42.900000000000006,0)" xlink:href="#bB"/><use transform="matrix(0.05,0,0,0.05,52.900000000000006,0)" xlink:href="#bt"/><use transform="matrix(0.05,0,0,0.05,56.85,0)" xlink:href="#bu"/><use transform="matrix(0.05,0,0,0.05,66.85000000000001,0)" xlink:href="#by"/></g><g id="Y"><use transform="matrix(0.05,0,0,0.05,0,0)" xlink:href="#bl"/><use transform="matrix(0.05,0,0,0.05,12.950000000000001,0)" xlink:href="#bt"/><use transform="matrix(0.05,0,0,0.05,16.900000000000002,0)" xlink:href="#bw"/><use transform="matrix(0.05,0,0,0.05,22.85,0)" xlink:href="#bo"/><use transform="matrix(0.05,0,0,0.05,31.85,0)" xlink:href="#bp"/><use transform="matrix(0.05,0,0,0.05,41.85,0)" xlink:href="#bt"/><use transform="matrix(0.05,0,0,0.05,45.800000000000004,0)" xlink:href="#bE"/><use transform="matrix(0.05,0,0,0.05,50.800000000000004,0)" xlink:href="#bq"/></g><path d="M266 0h-40l-56-210L115 0H75L2-248h35L96-30l15-64 43-154h32l59 218 59-218h35" id="ck"/><g id="Z"><use transform="matrix(0.05,0,0,0.05,0,0)" xlink:href="#ck"/><use transform="matrix(0.05,0,0,0.05,16.3,0)" xlink:href="#bm"/><use transform="matrix(0.05,0,0,0.05,26.3,0)" xlink:href="#bW"/><use transform="matrix(0.05,0,0,0.05,35.3,0)" xlink:href="#bv"/></g><g id="aa"><use transform="matrix(0.05,0,0,0.05,0,0)" xlink:href="#bJ"/><use transform="matrix(0.05,0,0,0.05,14.950000000000001,0)" xlink:href="#bG"/><use transform="matrix(0.05,0,0,0.05,24.950000000000003,0)" xlink:href="#bE"/><use transform="matrix(0.05,0,0,0.05,29.950000000000003,0)" xlink:href="#bt"/><use transform="matrix(0.05,0,0,0.05,33.900000000000006,0)" xlink:href="#bG"/><use transform="matrix(0.05,0,0,0.05,43.900000000000006,0)" xlink:href="#bu"/></g><g id="ab"><use transform="matrix(0.05,0,0,0.05,0,0)" xlink:href="#bm"/><use transform="matrix(0.05,0,0,0.05,10,0)" xlink:href="#bu"/><use transform="matrix(0.05,0,0,0.05,20,0)" xlink:href="#cf"/></g><g id="ac"><use transform="matrix(0.05,0,0,0.05,0,0)" xlink:href="#cg"/><use transform="matrix(0.05,0,0,0.05,14,0)" xlink:href="#bY"/><use transform="matrix(0.05,0,0,0.05,24,0)" xlink:href="#bE"/><use transform="matrix(0.05,0,0,0.05,29,0)" xlink:href="#bt"/><use transform="matrix(0.05,0,0,0.05,32.95,0)" xlink:href="#bo"/><use transform="matrix(0.05,0,0,0.05,41.95,0)" xlink:href="#bq"/></g><g id="ad"><use transform="matrix(0.05,0,0,0.05,0,0)" xlink:href="#cg"/><use transform="matrix(0.05,0,0,0.05,14,0)" xlink:href="#bz"/><use transform="matrix(0.05,0,0,0.05,24,0)" xlink:href="#bU"/><use transform="matrix(0.05,0,0,0.05,27.950000000000003,0)" xlink:href="#bv"/><use transform="matrix(0.05,0,0,0.05,37.95,0)" xlink:href="#bo"/><use transform="matrix(0.05,0,0,0.05,46.95,0)" xlink:href="#bE"/></g><g id="ae"><use transform="matrix(0.05,0,0,0.05,0,0)" xlink:href="#cg"/><use transform="matrix(0.05,0,0,0.05,14,0)" xlink:href="#bw"/><use transform="matrix(0.05,0,0,0.05,19.95,0)" xlink:href="#bt"/><use transform="matrix(0.05,0,0,0.05,23.9,0)" xlink:href="#bv"/><use transform="matrix(0.05,0,0,0.05,33.9,0)" xlink:href="#bu"/><use transform="matrix(0.05,0,0,0.05,43.9,0)" xlink:href="#bE"/><use transform="matrix(0.05,0,0,0.05,48.9,0)" xlink:href="#bv"/><use transform="matrix(0.05,0,0,0.05,58.900000000000006,0)" xlink:href="#cf"/></g><g id="af"><use transform="matrix(0.05,0,0,0.05,0,0)" xlink:href="#bV"/><use transform="matrix(0.05,0,0,0.05,12,0)" xlink:href="#bG"/><use transform="matrix(0.05,0,0,0.05,22,0)" xlink:href="#bF"/><use transform="matrix(0.05,0,0,0.05,27,0)" xlink:href="#bE"/><use transform="matrix(0.05,0,0,0.05,32,0)" xlink:href="#cj"/><use transform="matrix(0.05,0,0,0.05,44.95,0)" xlink:href="#bm"/><use transform="matrix(0.05,0,0,0.05,54.95,0)" xlink:href="#bw"/><use transform="matrix(0.05,0,0,0.05,60.900000000000006,0)" xlink:href="#bv"/></g><g id="ag"><use transform="matrix(0.05,0,0,0.05,0,0)" xlink:href="#bJ"/><use transform="matrix(0.05,0,0,0.05,14.950000000000001,0)" xlink:href="#bp"/><use transform="matrix(0.05,0,0,0.05,24.950000000000003,0)" xlink:href="#bG"/><use transform="matrix(0.05,0,0,0.05,34.95,0)" xlink:href="#bu"/></g><g id="ah"><use transform="matrix(0.05,0,0,0.05,0,0)" xlink:href="#bI"/><use transform="matrix(0.05,0,0,0.05,8.950000000000001,0)" xlink:href="#bG"/><use transform="matrix(0.05,0,0,0.05,18.950000000000003,0)" xlink:href="#bD"/><use transform="matrix(0.05,0,0,0.05,33.900000000000006,0)" xlink:href="#bG"/><use transform="matrix(0.05,0,0,0.05,43.900000000000006,0)" xlink:href="#by"/><use transform="matrix(0.05,0,0,0.05,53.900000000000006,0)" xlink:href="#bw"/><use transform="matrix(0.05,0,0,0.05,59.85,0)" xlink:href="#bm"/><use transform="matrix(0.05,0,0,0.05,69.85000000000001,0)" xlink:href="#bY"/><use transform="matrix(0.05,0,0,0.05,79.85000000000001,0)" xlink:href="#bB"/><use transform="matrix(0.05,0,0,0.05,89.85000000000001,0)" xlink:href="#bC"/></g><g id="ai"><use transform="matrix(0.05,0,0,0.05,0,0)" xlink:href="#bA"/><use transform="matrix(0.05,0,0,0.05,12,0)" xlink:href="#bw"/><use transform="matrix(0.05,0,0,0.05,17.95,0)" xlink:href="#bG"/><use transform="matrix(0.05,0,0,0.05,27.950000000000003,0)" xlink:href="#by"/><use transform="matrix(0.05,0,0,0.05,37.95,0)" xlink:href="#bw"/><use transform="matrix(0.05,0,0,0.05,43.900000000000006,0)" xlink:href="#bm"/><use transform="matrix(0.05,0,0,0.05,53.900000000000006,0)" xlink:href="#bD"/><use transform="matrix(0.05,0,0,0.05,68.85000000000001,0)" xlink:href="#bD"/><use transform="matrix(0.05,0,0,0.05,83.80000000000001,0)" xlink:href="#bt"/><use transform="matrix(0.05,0,0,0.05,87.75000000000001,0)" xlink:href="#bu"/><use transform="matrix(0.05,0,0,0.05,97.75000000000001,0)" xlink:href="#by"/></g><g id="aj"><use transform="matrix(0.05,0,0,0.05,0,0)" xlink:href="#bH"/><use transform="matrix(0.05,0,0,0.05,12,0)" xlink:href="#bJ"/></g><g id="ak"><use transform="matrix(0.05,0,0,0.05,0,0)" xlink:href="#bA"/><use transform="matrix(0.05,0,0,0.05,12,0)" xlink:href="#bG"/><use transform="matrix(0.05,0,0,0.05,22,0)" xlink:href="#cj"/><use transform="matrix(0.05,0,0,0.05,34.95,0)" xlink:href="#bv"/><use transform="matrix(0.05,0,0,0.05,44.95,0)" xlink:href="#bw"/></g><g id="al"><use transform="matrix(0.05,0,0,0.05,0,0)" xlink:href="#bH"/><use transform="matrix(0.05,0,0,0.05,12,0)" xlink:href="#bu"/><use transform="matrix(0.05,0,0,0.05,22,0)" xlink:href="#by"/><use transform="matrix(0.05,0,0,0.05,32,0)" xlink:href="#bt"/><use transform="matrix(0.05,0,0,0.05,35.95,0)" xlink:href="#bu"/><use transform="matrix(0.05,0,0,0.05,45.95,0)" xlink:href="#bv"/><use transform="matrix(0.05,0,0,0.05,55.95,0)" xlink:href="#bv"/><use transform="matrix(0.05,0,0,0.05,65.95,0)" xlink:href="#bw"/><use transform="matrix(0.05,0,0,0.05,71.9,0)" xlink:href="#bt"/><use transform="matrix(0.05,0,0,0.05,75.85000000000001,0)" xlink:href="#bu"/><use transform="matrix(0.05,0,0,0.05,85.85000000000001,0)" xlink:href="#by"/></g><path d="M140-251c81 0 123 46 123 126C263-53 228-8 163 1c7 30 30 48 69 40v23c-55 16-95-15-103-61C56-3 17-48 17-125c0-80 42-126 123-126zm0 227c63 0 89-41 89-101s-29-99-89-99c-61 0-89 39-89 99S79-25 140-24" id="cl"/><g id="am"><use transform="matrix(0.05,0,0,0.05,0,0)" xlink:href="#cl"/><use transform="matrix(0.05,0,0,0.05,14,0)" xlink:href="#bp"/><use transform="matrix(0.05,0,0,0.05,24,0)" xlink:href="#bm"/><use transform="matrix(0.05,0,0,0.05,34,0)" xlink:href="#bu"/><use transform="matrix(0.05,0,0,0.05,44,0)" xlink:href="#bE"/><use transform="matrix(0.05,0,0,0.05,49,0)" xlink:href="#bp"/><use transform="matrix(0.05,0,0,0.05,59,0)" xlink:href="#bD"/></g><g id="an"><use transform="matrix(0.05,0,0,0.05,0,0)" xlink:href="#bJ"/><use transform="matrix(0.05,0,0,0.05,14.950000000000001,0)" xlink:href="#bv"/><use transform="matrix(0.05,0,0,0.05,24.950000000000003,0)" xlink:href="#bo"/><use transform="matrix(0.05,0,0,0.05,33.95,0)" xlink:href="#bB"/><use transform="matrix(0.05,0,0,0.05,43.95,0)" xlink:href="#bm"/><use transform="matrix(0.05,0,0,0.05,53.95,0)" xlink:href="#bu"/><use transform="matrix(0.05,0,0,0.05,63.95,0)" xlink:href="#bt"/><use transform="matrix(0.05,0,0,0.05,67.9,0)" xlink:href="#bo"/><use transform="matrix(0.05,0,0,0.05,76.9,0)" xlink:href="#bq"/></g><path d="M101-251c68 0 85 55 85 127S166 4 100 4C33 4 14-52 14-124c0-73 17-127 87-127zm-1 229c47 0 54-49 54-102s-4-102-53-102c-51 0-55 48-55 102 0 53 5 102 54 102" id="cm"/><use transform="matrix(0.05,0,0,0.05,0,0)" xlink:href="#cm" id="ao"/><g id="ap"><use transform="matrix(0.05,0,0,0.05,0,0)" xlink:href="#bx"/><use transform="matrix(0.05,0,0,0.05,12,0)" xlink:href="#bu"/><use transform="matrix(0.05,0,0,0.05,22,0)" xlink:href="#bm"/><use transform="matrix(0.05,0,0,0.05,32,0)" xlink:href="#bn"/><use transform="matrix(0.05,0,0,0.05,35.95,0)" xlink:href="#bC"/><use transform="matrix(0.05,0,0,0.05,44.95,0)" xlink:href="#bq"/><use transform="matrix(0.05,0,0,0.05,53.95,0)" xlink:href="#bt"/><use transform="matrix(0.05,0,0,0.05,57.900000000000006,0)" xlink:href="#bq"/></g><path d="M139-81c0-46-55-55-73-27H18l9-140h149v37H72l-4 63c44-38 133-4 122 66C201 21 21 35 11-62l49-4c5 18 15 30 39 30 26 0 40-18 40-45" id="cn"/><g id="aq"><use transform="matrix(0.05,0,0,0.05,0,0)" xlink:href="#bi"/><use transform="matrix(0.05,0,0,0.05,10,0)" xlink:href="#bj"/><use transform="matrix(0.05,0,0,0.05,20,0)" xlink:href="#bk"/><use transform="matrix(0.05,0,0,0.05,30,0)" xlink:href="#cn"/></g><g id="ar"><use transform="matrix(0.05,0,0,0.05,0,0)" xlink:href="#bl"/><use transform="matrix(0.05,0,0,0.05,12.950000000000001,0)" xlink:href="#bG"/><use transform="matrix(0.05,0,0,0.05,22.950000000000003,0)" xlink:href="#bD"/><use transform="matrix(0.05,0,0,0.05,37.900000000000006,0)" xlink:href="#bY"/><use transform="matrix(0.05,0,0,0.05,47.900000000000006,0)" xlink:href="#bp"/><use transform="matrix(0.05,0,0,0.05,57.900000000000006,0)" xlink:href="#bE"/><use transform="matrix(0.05,0,0,0.05,62.900000000000006,0)" xlink:href="#bt"/><use transform="matrix(0.05,0,0,0.05,66.85000000000001,0)" xlink:href="#bu"/><use transform="matrix(0.05,0,0,0.05,76.85000000000001,0)" xlink:href="#by"/></g><g id="as"><use transform="matrix(0.05,0,0,0.05,0,0)" xlink:href="#bA"/><use transform="matrix(0.05,0,0,0.05,12,0)" xlink:href="#bB"/><use transform="matrix(0.05,0,0,0.05,22,0)" xlink:href="#bC"/><use transform="matrix(0.05,0,0,0.05,31,0)" xlink:href="#bq"/><use transform="matrix(0.05,0,0,0.05,40,0)" xlink:href="#bt"/><use transform="matrix(0.05,0,0,0.05,43.95,0)" xlink:href="#bo"/><use transform="matrix(0.05,0,0,0.05,52.95,0)" xlink:href="#bm"/><use transform="matrix(0.05,0,0,0.05,62.95,0)" xlink:href="#bn"/></g><g id="at"><use transform="matrix(0.05,0,0,0.05,0,0)" xlink:href="#bH"/><use transform="matrix(0.05,0,0,0.05,12,0)" xlink:href="#bn"/><use transform="matrix(0.05,0,0,0.05,15.949999999999998,0)" xlink:href="#bv"/><use transform="matrix(0.05,0,0,0.05,25.950000000000003,0)" xlink:href="#bo"/><use transform="matrix(0.05,0,0,0.05,34.95,0)" xlink:href="#bE"/><use transform="matrix(0.05,0,0,0.05,39.95,0)" xlink:href="#bG"/><use transform="matrix(0.05,0,0,0.05,49.95,0)" xlink:href="#bu"/><use transform="matrix(0.05,0,0,0.05,59.95,0)" xlink:href="#bt"/><use transform="matrix(0.05,0,0,0.05,63.900000000000006,0)" xlink:href="#bo"/><use transform="matrix(0.05,0,0,0.05,72.9,0)" xlink:href="#bq"/></g><path d="M30-248c118-7 216 8 213 122C240-48 200 0 122 0H30v-248zM63-27c89 8 146-16 146-99s-60-101-146-95v194" id="co"/><g id="au"><use transform="matrix(0.05,0,0,0.05,0,0)" xlink:href="#co"/><use transform="matrix(0.05,0,0,0.05,12.950000000000001,0)" xlink:href="#bt"/><use transform="matrix(0.05,0,0,0.05,16.900000000000002,0)" xlink:href="#by"/><use transform="matrix(0.05,0,0,0.05,26.900000000000002,0)" xlink:href="#bt"/><use transform="matrix(0.05,0,0,0.05,30.85,0)" xlink:href="#bE"/><use transform="matrix(0.05,0,0,0.05,35.85,0)" xlink:href="#bm"/><use transform="matrix(0.05,0,0,0.05,45.85,0)" xlink:href="#bn"/></g><g id="av"><use transform="matrix(0.05,0,0,0.05,0,0)" xlink:href="#bH"/><use transform="matrix(0.05,0,0,0.05,12,0)" xlink:href="#bn"/><use transform="matrix(0.05,0,0,0.05,15.949999999999998,0)" xlink:href="#bv"/><use transform="matrix(0.05,0,0,0.05,25.950000000000003,0)" xlink:href="#bo"/><use transform="matrix(0.05,0,0,0.05,34.95,0)" xlink:href="#bE"/><use transform="matrix(0.05,0,0,0.05,39.95,0)" xlink:href="#bw"/><use transform="matrix(0.05,0,0,0.05,45.900000000000006,0)" xlink:href="#bG"/><use transform="matrix(0.05,0,0,0.05,55.900000000000006,0)" xlink:href="#bu"/><use transform="matrix(0.05,0,0,0.05,65.9,0)" xlink:href="#bt"/><use transform="matrix(0.05,0,0,0.05,69.85000000000001,0)" xlink:href="#bo"/><use transform="matrix(0.05,0,0,0.05,78.85000000000001,0)" xlink:href="#bq"/></g><g id="aw"><use transform="matrix(0.05,0,0,0.05,0,0)" xlink:href="#bA"/><use transform="matrix(0.05,0,0,0.05,12,0)" xlink:href="#bB"/><use transform="matrix(0.05,0,0,0.05,22,0)" xlink:href="#bC"/><use transform="matrix(0.05,0,0,0.05,31,0)" xlink:href="#bq"/><use transform="matrix(0.05,0,0,0.05,40,0)" xlink:href="#bt"/><use transform="matrix(0.05,0,0,0.05,43.95,0)" xlink:href="#bo"/><use transform="matrix(0.05,0,0,0.05,52.95,0)" xlink:href="#bq"/></g><g id="ax"><use transform="matrix(0.05,0,0,0.05,0,0)" xlink:href="#bV"/><use transform="matrix(0.05,0,0,0.05,12,0)" xlink:href="#bC"/><use transform="matrix(0.05,0,0,0.05,21,0)" xlink:href="#bq"/><use transform="matrix(0.05,0,0,0.05,30,0)" xlink:href="#bE"/><use transform="matrix(0.05,0,0,0.05,35,0)" xlink:href="#bv"/><use transform="matrix(0.05,0,0,0.05,45,0)" xlink:href="#bD"/><use transform="matrix(0.05,0,0,0.05,59.95,0)" xlink:href="#bq"/></g><g id="ay"><use transform="matrix(0.05,0,0,0.05,0,0)" xlink:href="#bV"/><use transform="matrix(0.05,0,0,0.05,12,0)" xlink:href="#bt"/><use transform="matrix(0.05,0,0,0.05,15.949999999999998,0)" xlink:href="#bD"/><use transform="matrix(0.05,0,0,0.05,30.899999999999995,0)" xlink:href="#bp"/><use transform="matrix(0.05,0,0,0.05,40.9,0)" xlink:href="#bn"/><use transform="matrix(0.05,0,0,0.05,44.85,0)" xlink:href="#bm"/><use transform="matrix(0.05,0,0,0.05,54.85,0)" xlink:href="#bE"/><use transform="matrix(0.05,0,0,0.05,59.85,0)" xlink:href="#bt"/><use transform="matrix(0.05,0,0,0.05,63.800000000000004,0)" xlink:href="#bG"/><use transform="matrix(0.05,0,0,0.05,73.80000000000001,0)" xlink:href="#bu"/></g><g id="az"><use transform="matrix(0.05,0,0,0.05,0,0)" xlink:href="#bA"/><use transform="matrix(0.05,0,0,0.05,12,0)" xlink:href="#bw"/><use transform="matrix(0.05,0,0,0.05,17.95,0)" xlink:href="#bG"/><use transform="matrix(0.05,0,0,0.05,27.950000000000003,0)" xlink:href="#bz"/><use transform="matrix(0.05,0,0,0.05,37.95,0)" xlink:href="#bm"/><use transform="matrix(0.05,0,0,0.05,47.95,0)" xlink:href="#bz"/><use transform="matrix(0.05,0,0,0.05,57.95,0)" xlink:href="#bt"/><use transform="matrix(0.05,0,0,0.05,61.900000000000006,0)" xlink:href="#bn"/><use transform="matrix(0.05,0,0,0.05,65.85000000000001,0)" xlink:href="#bt"/><use transform="matrix(0.05,0,0,0.05,69.80000000000001,0)" xlink:href="#bE"/><use transform="matrix(0.05,0,0,0.05,74.80000000000001,0)" xlink:href="#bC"/></g><g id="aA"><use transform="matrix(0.05,0,0,0.05,0,0)" xlink:href="#bV"/><use transform="matrix(0.05,0,0,0.05,12,0)" xlink:href="#bE"/><use transform="matrix(0.05,0,0,0.05,17,0)" xlink:href="#bm"/><use transform="matrix(0.05,0,0,0.05,27,0)" xlink:href="#bE"/><use transform="matrix(0.05,0,0,0.05,32,0)" xlink:href="#bt"/><use transform="matrix(0.05,0,0,0.05,35.95,0)" xlink:href="#bq"/><use transform="matrix(0.05,0,0,0.05,44.95,0)" xlink:href="#bE"/><use transform="matrix(0.05,0,0,0.05,49.95,0)" xlink:href="#bt"/><use transform="matrix(0.05,0,0,0.05,53.900000000000006,0)" xlink:href="#bo"/><use transform="matrix(0.05,0,0,0.05,62.900000000000006,0)" xlink:href="#bq"/></g><g id="aB"><use transform="matrix(0.05,0,0,0.05,0,0)" xlink:href="#ck"/><use transform="matrix(0.05,0,0,0.05,16.3,0)" xlink:href="#bm"/><use transform="matrix(0.05,0,0,0.05,26.3,0)" xlink:href="#bW"/><use transform="matrix(0.05,0,0,0.05,35.3,0)" xlink:href="#bv"/><use transform="matrix(0.05,0,0,0.05,45.3,0)" xlink:href="#bq"/></g><g id="aC"><use transform="matrix(0.05,0,0,0.05,0,0)" xlink:href="#bl"/><use transform="matrix(0.05,0,0,0.05,12.950000000000001,0)" xlink:href="#bG"/><use transform="matrix(0.05,0,0,0.05,22.950000000000003,0)" xlink:href="#bD"/><use transform="matrix(0.05,0,0,0.05,37.900000000000006,0)" xlink:href="#bD"/><use transform="matrix(0.05,0,0,0.05,52.85,0)" xlink:href="#bp"/><use transform="matrix(0.05,0,0,0.05,62.85,0)" xlink:href="#bu"/><use transform="matrix(0.05,0,0,0.05,72.85000000000001,0)" xlink:href="#bt"/><use transform="matrix(0.05,0,0,0.05,76.80000000000001,0)" xlink:href="#bo"/><use transform="matrix(0.05,0,0,0.05,85.80000000000001,0)" xlink:href="#bm"/><use transform="matrix(0.05,0,0,0.05,95.80000000000001,0)" xlink:href="#bE"/><use transform="matrix(0.05,0,0,0.05,100.80000000000001,0)" xlink:href="#bt"/><use transform="matrix(0.05,0,0,0.05,104.75,0)" xlink:href="#bG"/><use transform="matrix(0.05,0,0,0.05,114.75,0)" xlink:href="#bu"/></g><g id="aD"><use transform="matrix(0.05,0,0,0.05,0,0)" xlink:href="#bI"/><use transform="matrix(0.05,0,0,0.05,10.950000000000001,0)" xlink:href="#bB"/><use transform="matrix(0.05,0,0,0.05,20.950000000000003,0)" xlink:href="#bv"/><use transform="matrix(0.05,0,0,0.05,30.950000000000003,0)" xlink:href="#bG"/><use transform="matrix(0.05,0,0,0.05,40.95,0)" xlink:href="#bw"/><use transform="matrix(0.05,0,0,0.05,46.900000000000006,0)" xlink:href="#bC"/></g><g id="aE"><use transform="matrix(0.05,0,0,0.05,0,0)" xlink:href="#bH"/><use transform="matrix(0.05,0,0,0.05,12,0)" xlink:href="#bo"/><use transform="matrix(0.05,0,0,0.05,21,0)" xlink:href="#bG"/><use transform="matrix(0.05,0,0,0.05,31,0)" xlink:href="#bu"/><use transform="matrix(0.05,0,0,0.05,41,0)" xlink:href="#bG"/><use transform="matrix(0.05,0,0,0.05,51,0)" xlink:href="#bD"/><use transform="matrix(0.05,0,0,0.05,65.95,0)" xlink:href="#bt"/><use transform="matrix(0.05,0,0,0.05,69.9,0)" xlink:href="#bo"/><use transform="matrix(0.05,0,0,0.05,78.9,0)" xlink:href="#bq"/></g><g id="aF"><use transform="matrix(0.05,0,0,0.05,0,0)" xlink:href="#bA"/><use transform="matrix(0.05,0,0,0.05,12,0)" xlink:href="#bw"/><use transform="matrix(0.05,0,0,0.05,17.95,0)" xlink:href="#bG"/><use transform="matrix(0.05,0,0,0.05,27.950000000000003,0)" xlink:href="#bU"/><use transform="matrix(0.05,0,0,0.05,31.899999999999995,0)" xlink:href="#bv"/><use transform="matrix(0.05,0,0,0.05,41.9,0)" xlink:href="#bo"/><use transform="matrix(0.05,0,0,0.05,50.9,0)" xlink:href="#bE"/></g><g id="aG"><use transform="matrix(0.05,0,0,0.05,0,0)" xlink:href="#bJ"/><use transform="matrix(0.05,0,0,0.05,14.950000000000001,0)" xlink:href="#bm"/><use transform="matrix(0.05,0,0,0.05,24.950000000000003,0)" xlink:href="#bu"/><use transform="matrix(0.05,0,0,0.05,34.95,0)" xlink:href="#bm"/><use transform="matrix(0.05,0,0,0.05,44.95,0)" xlink:href="#by"/><use transform="matrix(0.05,0,0,0.05,54.95,0)" xlink:href="#bv"/><use transform="matrix(0.05,0,0,0.05,64.95,0)" xlink:href="#bD"/><use transform="matrix(0.05,0,0,0.05,79.9,0)" xlink:href="#bv"/><use transform="matrix(0.05,0,0,0.05,89.9,0)" xlink:href="#bu"/><use transform="matrix(0.05,0,0,0.05,99.9,0)" xlink:href="#bE"/></g><g id="aH"><use transform="matrix(0.05,0,0,0.05,0,0)" xlink:href="#bx"/><use transform="matrix(0.05,0,0,0.05,12,0)" xlink:href="#bu"/><use transform="matrix(0.05,0,0,0.05,22,0)" xlink:href="#bE"/><use transform="matrix(0.05,0,0,0.05,27,0)" xlink:href="#bv"/><use transform="matrix(0.05,0,0,0.05,37,0)" xlink:href="#bu"/><use transform="matrix(0.05,0,0,0.05,47,0)" xlink:href="#bu"/><use transform="matrix(0.05,0,0,0.05,57,0)" xlink:href="#bm"/></g><g id="aI"><use transform="matrix(0.05,0,0,0.05,0,0)" xlink:href="#co"/><use transform="matrix(0.05,0,0,0.05,12.950000000000001,0)" xlink:href="#bv"/><use transform="matrix(0.05,0,0,0.05,22.950000000000003,0)" xlink:href="#bt"/><use transform="matrix(0.05,0,0,0.05,26.900000000000002,0)" xlink:href="#bq"/><use transform="matrix(0.05,0,0,0.05,35.900000000000006,0)" xlink:href="#bt"/><use transform="matrix(0.05,0,0,0.05,39.85000000000001,0)" xlink:href="#by"/><use transform="matrix(0.05,0,0,0.05,49.85000000000001,0)" xlink:href="#bu"/></g><path d="M115-159c48 0 72 30 72 78 0 54-30 85-83 85-64 0-91-50-91-122 0-98 58-163 141-120 15 8 21 24 27 44l-47 6c-5-31-48-31-61-4-7 14-11 33-11 60 9-17 28-27 53-27zM102-35c24 0 36-20 36-45s-11-43-37-43c-23 0-36 14-36 38 0 27 11 50 37 50" id="cp"/><g id="aJ"><use transform="matrix(0.05,0,0,0.05,0,0)" xlink:href="#bi"/><use transform="matrix(0.05,0,0,0.05,10,0)" xlink:href="#bj"/><use transform="matrix(0.05,0,0,0.05,20,0)" xlink:href="#bk"/><use transform="matrix(0.05,0,0,0.05,30,0)" xlink:href="#cp"/></g><path d="M155-56V0h-30v-56H8v-25l114-167h33v167h35v25h-35zm-30-156c-27 46-58 90-88 131h88v-131" id="cq"/><g id="aK"><use transform="matrix(0.05,0,0,0.05,0,0)" xlink:href="#cq"/><use transform="matrix(0.05,0,0,0.05,10,0)" xlink:href="#bE"/><use transform="matrix(0.05,0,0,0.05,15,0)" xlink:href="#bB"/></g><g id="aL"><use transform="matrix(0.05,0,0,0.05,0,0)" xlink:href="#ch"/><use transform="matrix(0.05,0,0,0.05,12.950000000000001,0)" xlink:href="#bm"/><use transform="matrix(0.05,0,0,0.05,22.950000000000003,0)" xlink:href="#bu"/><use transform="matrix(0.05,0,0,0.05,32.95,0)" xlink:href="#bG"/><use transform="matrix(0.05,0,0,0.05,42.95,0)" xlink:href="#bq"/><use transform="matrix(0.05,0,0,0.05,51.95,0)" xlink:href="#bo"/><use transform="matrix(0.05,0,0,0.05,60.95,0)" xlink:href="#bm"/><use transform="matrix(0.05,0,0,0.05,70.95,0)" xlink:href="#bn"/><use transform="matrix(0.05,0,0,0.05,74.9,0)" xlink:href="#bv"/></g><g id="aM"><use transform="matrix(0.05,0,0,0.05,0,0)" xlink:href="#co"/><use transform="matrix(0.05,0,0,0.05,12.950000000000001,0)" xlink:href="#bv"/><use transform="matrix(0.05,0,0,0.05,22.950000000000003,0)" xlink:href="#bW"/><use transform="matrix(0.05,0,0,0.05,31.950000000000003,0)" xlink:href="#bt"/><use transform="matrix(0.05,0,0,0.05,35.900000000000006,0)" xlink:href="#bo"/><use transform="matrix(0.05,0,0,0.05,44.900000000000006,0)" xlink:href="#bv"/><use transform="matrix(0.05,0,0,0.05,54.900000000000006,0)" xlink:href="#bq"/></g><path d="M233-177c-1 41-23 64-60 70L243 0h-38l-65-103H63V0H30v-248c88 3 205-21 203 71zM63-129c60-2 137 13 137-47 0-61-80-42-137-45v92" id="cr"/><g id="aN"><use transform="matrix(0.05,0,0,0.05,0,0)" xlink:href="#cr"/><use transform="matrix(0.05,0,0,0.05,12.950000000000001,0)" xlink:href="#bS"/></g><g id="aO"><use transform="matrix(0.05,0,0,0.05,0,0)" xlink:href="#bs"/><use transform="matrix(0.05,0,0,0.05,10,0)" xlink:href="#bt"/><use transform="matrix(0.05,0,0,0.05,13.949999999999998,0)" xlink:href="#bu"/><use transform="matrix(0.05,0,0,0.05,23.95,0)" xlink:href="#bv"/><use transform="matrix(0.05,0,0,0.05,33.95,0)" xlink:href="#bq"/></g><g id="aP"><use transform="matrix(0.05,0,0,0.05,0,0)" xlink:href="#bx"/><use transform="matrix(0.05,0,0,0.05,12,0)" xlink:href="#bu"/><use transform="matrix(0.05,0,0,0.05,22,0)" xlink:href="#bE"/><use transform="matrix(0.05,0,0,0.05,27,0)" xlink:href="#bv"/><use transform="matrix(0.05,0,0,0.05,37,0)" xlink:href="#bu"/><use transform="matrix(0.05,0,0,0.05,47,0)" xlink:href="#bu"/><use transform="matrix(0.05,0,0,0.05,57,0)" xlink:href="#bm"/><use transform="matrix(0.05,0,0,0.05,67,0)" xlink:href="#bq"/></g><g id="aQ"><use transform="matrix(0.05,0,0,0.05,0,0)" xlink:href="#bA"/><use transform="matrix(0.05,0,0,0.05,12,0)" xlink:href="#bw"/><use transform="matrix(0.05,0,0,0.05,17.95,0)" xlink:href="#bG"/><use transform="matrix(0.05,0,0,0.05,27.950000000000003,0)" xlink:href="#cf"/><use transform="matrix(0.05,0,0,0.05,37.95,0)" xlink:href="#bp"/><use transform="matrix(0.05,0,0,0.05,47.95,0)" xlink:href="#bo"/><use transform="matrix(0.05,0,0,0.05,56.95,0)" xlink:href="#bE"/></g><g id="aR"><use transform="matrix(0.05,0,0,0.05,0,0)" xlink:href="#bs"/><use transform="matrix(0.05,0,0,0.05,10,0)" xlink:href="#bt"/><use transform="matrix(0.05,0,0,0.05,13.949999999999998,0)" xlink:href="#bF"/><use transform="matrix(0.05,0,0,0.05,18.95,0)" xlink:href="#bv"/></g><g id="aS"><use transform="matrix(0.05,0,0,0.05,0,0)" xlink:href="#bl"/><use transform="matrix(0.05,0,0,0.05,12.950000000000001,0)" xlink:href="#bC"/><use transform="matrix(0.05,0,0,0.05,21.950000000000003,0)" xlink:href="#bo"/><use transform="matrix(0.05,0,0,0.05,30.950000000000003,0)" xlink:href="#bn"/><use transform="matrix(0.05,0,0,0.05,34.900000000000006,0)" xlink:href="#bv"/></g><path d="M52 0c1-96 47-148 87-207H15v-41h169v40c-36 62-79 113-81 208H52" id="cs"/><g id="aT"><use transform="matrix(0.05,0,0,0.05,0,0)" xlink:href="#bi"/><use transform="matrix(0.05,0,0,0.05,10,0)" xlink:href="#bj"/><use transform="matrix(0.05,0,0,0.05,20,0)" xlink:href="#bk"/><use transform="matrix(0.05,0,0,0.05,30,0)" xlink:href="#cs"/></g><g id="aU"><use transform="matrix(0.05,0,0,0.05,0,0)" xlink:href="#bJ"/><use transform="matrix(0.05,0,0,0.05,14.950000000000001,0)" xlink:href="#bG"/><use transform="matrix(0.05,0,0,0.05,24.950000000000003,0)" xlink:href="#cf"/><use transform="matrix(0.05,0,0,0.05,34.95,0)" xlink:href="#bv"/><use transform="matrix(0.05,0,0,0.05,44.95,0)" xlink:href="#bn"/><use transform="matrix(0.05,0,0,0.05,48.900000000000006,0)" xlink:href="#bn"/><use transform="matrix(0.05,0,0,0.05,52.85,0)" xlink:href="#bt"/><use transform="matrix(0.05,0,0,0.05,56.80000000000001,0)" xlink:href="#bu"/><use transform="matrix(0.05,0,0,0.05,66.80000000000001,0)" xlink:href="#by"/></g><g id="aV"><use transform="matrix(0.05,0,0,0.05,0,0)" xlink:href="#bx"/><use transform="matrix(0.05,0,0,0.05,12,0)" xlink:href="#cf"/><use transform="matrix(0.05,0,0,0.05,22,0)" xlink:href="#bW"/><use transform="matrix(0.05,0,0,0.05,31,0)" xlink:href="#bm"/><use transform="matrix(0.05,0,0,0.05,41,0)" xlink:href="#bu"/><use transform="matrix(0.05,0,0,0.05,51,0)" xlink:href="#bo"/><use transform="matrix(0.05,0,0,0.05,60,0)" xlink:href="#bv"/><use transform="matrix(0.05,0,0,0.05,70,0)" xlink:href="#cf"/></g><g id="aW"><use transform="matrix(0.05,0,0,0.05,0,0)" xlink:href="#bs"/><use transform="matrix(0.05,0,0,0.05,10,0)" xlink:href="#bm"/><use transform="matrix(0.05,0,0,0.05,20,0)" xlink:href="#bz"/></g><use transform="matrix(0.05,0,0,0.05,0,0)" xlink:href="#bX" id="aX"/><g id="aY"><use transform="matrix(0.05,0,0,0.05,0,0)" xlink:href="#bV"/><use transform="matrix(0.05,0,0,0.05,12,0)" xlink:href="#bv"/><use transform="matrix(0.05,0,0,0.05,22,0)" xlink:href="#bD"/><use transform="matrix(0.05,0,0,0.05,36.95,0)" xlink:href="#bt"/><use transform="matrix(0.05,0,0,0.05,40.900000000000006,0)" xlink:href="#bu"/><use transform="matrix(0.05,0,0,0.05,50.900000000000006,0)" xlink:href="#bm"/><use transform="matrix(0.05,0,0,0.05,60.900000000000006,0)" xlink:href="#bw"/><use transform="matrix(0.05,0,0,0.05,66.85000000000001,0)" xlink:href="#bq"/></g><g id="aZ"><use transform="matrix(0.05,0,0,0.05,0,0)" xlink:href="#bV"/><use transform="matrix(0.05,0,0,0.05,12,0)" xlink:href="#bG"/><use transform="matrix(0.05,0,0,0.05,22,0)" xlink:href="#bn"/><use transform="matrix(0.05,0,0,0.05,25.950000000000003,0)" xlink:href="#bt"/><use transform="matrix(0.05,0,0,0.05,29.899999999999995,0)" xlink:href="#cf"/></g><g id="ba"><use transform="matrix(0.05,0,0,0.05,0,0)" xlink:href="#bV"/><use transform="matrix(0.05,0,0,0.05,12,0)" xlink:href="#bE"/><use transform="matrix(0.05,0,0,0.05,17,0)" xlink:href="#bm"/><use transform="matrix(0.05,0,0,0.05,27,0)" xlink:href="#bE"/><use transform="matrix(0.05,0,0,0.05,32,0)" xlink:href="#bv"/></g><g id="bb"><use transform="matrix(0.05,0,0,0.05,0,0)" xlink:href="#bA"/><use transform="matrix(0.05,0,0,0.05,12,0)" xlink:href="#bw"/><use transform="matrix(0.05,0,0,0.05,17.95,0)" xlink:href="#bG"/><use transform="matrix(0.05,0,0,0.05,27.950000000000003,0)" xlink:href="#bF"/><use transform="matrix(0.05,0,0,0.05,32.95,0)" xlink:href="#bv"/><use transform="matrix(0.05,0,0,0.05,42.95,0)" xlink:href="#bq"/><use transform="matrix(0.05,0,0,0.05,51.95,0)" xlink:href="#bq"/><use transform="matrix(0.05,0,0,0.05,60.95,0)" xlink:href="#bt"/><use transform="matrix(0.05,0,0,0.05,64.9,0)" xlink:href="#bG"/><use transform="matrix(0.05,0,0,0.05,74.9,0)" xlink:href="#bu"/><use transform="matrix(0.05,0,0,0.05,84.9,0)" xlink:href="#bm"/><use transform="matrix(0.05,0,0,0.05,94.9,0)" xlink:href="#bn"/></g><g id="bc"><use transform="matrix(0.05,0,0,0.05,0,0)" xlink:href="#bA"/><use transform="matrix(0.05,0,0,0.05,12,0)" xlink:href="#bw"/><use transform="matrix(0.05,0,0,0.05,17.95,0)" xlink:href="#bm"/><use transform="matrix(0.05,0,0,0.05,27.950000000000003,0)" xlink:href="#bo"/><use transform="matrix(0.05,0,0,0.05,36.95,0)" xlink:href="#bE"/><use transform="matrix(0.05,0,0,0.05,41.95,0)" xlink:href="#bt"/><use transform="matrix(0.05,0,0,0.05,45.900000000000006,0)" xlink:href="#bo"/><use transform="matrix(0.05,0,0,0.05,54.900000000000006,0)" xlink:href="#bv"/></g><g id="bd"><use transform="matrix(0.05,0,0,0.05,0,0)" xlink:href="#bS"/><use transform="matrix(0.05,0,0,0.05,10.950000000000001,0)" xlink:href="#bG"/><use transform="matrix(0.05,0,0,0.05,20.950000000000003,0)" xlink:href="#bp"/><use transform="matrix(0.05,0,0,0.05,30.950000000000003,0)" xlink:href="#bu"/><use transform="matrix(0.05,0,0,0.05,40.95,0)" xlink:href="#cf"/><use transform="matrix(0.05,0,0,0.05,50.95,0)" xlink:href="#bm"/><use transform="matrix(0.05,0,0,0.05,60.95,0)" xlink:href="#bE"/><use transform="matrix(0.05,0,0,0.05,65.95,0)" xlink:href="#bt"/><use transform="matrix(0.05,0,0,0.05,69.9,0)" xlink:href="#bG"/><use transform="matrix(0.05,0,0,0.05,79.9,0)" xlink:href="#bu"/><use transform="matrix(0.05,0,0,0.05,89.9,0)" xlink:href="#bq"/></g><path d="M33 0v-248h34V0H33" id="ct"/><g id="be"><use transform="matrix(0.05,0,0,0.05,0,0)" xlink:href="#ct"/><use transform="matrix(0.05,0,0,0.05,5,0)" xlink:href="#bD"/><use transform="matrix(0.05,0,0,0.05,19.950000000000003,0)" xlink:href="#bY"/><use transform="matrix(0.05,0,0,0.05,29.950000000000003,0)" xlink:href="#bv"/><use transform="matrix(0.05,0,0,0.05,39.95,0)" xlink:href="#bw"/><use transform="matrix(0.05,0,0,0.05,45.900000000000006,0)" xlink:href="#bm"/><use transform="matrix(0.05,0,0,0.05,55.900000000000006,0)" xlink:href="#bE"/><use transform="matrix(0.05,0,0,0.05,60.900000000000006,0)" xlink:href="#bt"/><use transform="matrix(0.05,0,0,0.05,64.85000000000001,0)" xlink:href="#bW"/><use transform="matrix(0.05,0,0,0.05,73.85000000000001,0)" xlink:href="#bv"/></g></defs></g></svg>